<svg width="20" height="20" viewBox="0 0 20 20" fill="none" xmlns="http://www.w3.org/2000/svg">
<path fill-rule="evenodd" clip-rule="evenodd" d="M13.3337 10.8334H10.0003C9.54033 10.8334 9.16699 10.4609 9.16699 10V6.66669C9.16699 6.20585 9.54033 5.83335 10.0003 5.83335C10.4603 5.83335 10.8337 6.20585 10.8337 6.66669V9.16669H13.3337C13.7945 9.16669 14.167 9.53919 14.167 10C14.167 10.4609 13.7945 10.8334 13.3337 10.8334ZM10.0003 1.66669C5.40533 1.66669 1.66699 5.40502 1.66699 10C1.66699 14.595 5.40533 18.3334 10.0003 18.3334C14.5953 18.3334 18.3337 14.595 18.3337 10C18.3337 5.40502 14.5953 1.66669 10.0003 1.66669Z" fill="white" fill-opacity="0.8"/>
<mask id="mask0_2459_2111" style="mask-type:luminance" maskUnits="userSpaceOnUse" x="1" y="1" width="18" height="18">
<path fill-rule="evenodd" clip-rule="evenodd" d="M13.3337 10.8334H10.0003C9.54033 10.8334 9.16699 10.4609 9.16699 10V6.66669C9.16699 6.20585 9.54033 5.83335 10.0003 5.83335C10.4603 5.83335 10.8337 6.20585 10.8337 6.66669V9.16669H13.3337C13.7945 9.16669 14.167 9.53919 14.167 10C14.167 10.4609 13.7945 10.8334 13.3337 10.8334ZM10.0003 1.66669C5.40533 1.66669 1.66699 5.40502 1.66699 10C1.66699 14.595 5.40533 18.3334 10.0003 18.3334C14.5953 18.3334 18.3337 14.595 18.3337 10C18.3337 5.40502 14.5953 1.66669 10.0003 1.66669Z" fill="white"/>
</mask>
<g mask="url(#mask0_2459_2111)">
<rect width="20" height="20" fill="white" fill-opacity="0.8"/>
</g>
</svg>
