<svg width="21" height="21" viewBox="0 0 21 21" fill="none" xmlns="http://www.w3.org/2000/svg">
<path fill-rule="evenodd" clip-rule="evenodd" d="M8 10.5V11.3333H5.2225C4.91583 11.3333 4.66667 11.0842 4.66667 10.7775V5.2225C4.66667 4.91583 4.91583 4.66667 5.2225 4.66667H10.7775C11.0842 4.66667 11.3333 4.91583 11.3333 5.2225V8H10.5C9.12167 8 8 9.12167 8 10.5M15.5 8H13V5.2225C13 3.99667 12.0033 3 10.7775 3H5.2225C3.99667 3 3 3.99667 3 5.2225V10.7775C3 12.0033 3.99667 13 5.2225 13H8V15.5C8 16.8783 9.12167 18 10.5 18H15.5C16.8783 18 18 16.8783 18 15.5V10.5C18 9.12167 16.8783 8 15.5 8" fill="#6A6A6A"/>
<mask id="mask0_2379_5296" style="mask-type:luminance" maskUnits="userSpaceOnUse" x="3" y="3" width="15" height="15">
<path fill-rule="evenodd" clip-rule="evenodd" d="M8 10.5V11.3333H5.2225C4.91583 11.3333 4.66667 11.0842 4.66667 10.7775V5.2225C4.66667 4.91583 4.91583 4.66667 5.2225 4.66667H10.7775C11.0842 4.66667 11.3333 4.91583 11.3333 5.2225V8H10.5C9.12167 8 8 9.12167 8 10.5M15.5 8H13V5.2225C13 3.99667 12.0033 3 10.7775 3H5.2225C3.99667 3 3 3.99667 3 5.2225V10.7775C3 12.0033 3.99667 13 5.2225 13H8V15.5C8 16.8783 9.12167 18 10.5 18H15.5C16.8783 18 18 16.8783 18 15.5V10.5C18 9.12167 16.8783 8 15.5 8" fill="white"/>
</mask>
<g mask="url(#mask0_2379_5296)">
<rect x="0.5" y="0.5" width="20" height="20" fill="#6A6A6A"/>
</g>
</svg>
