<svg width="21" height="21" viewBox="0 0 21 21" fill="none" xmlns="http://www.w3.org/2000/svg">
<path fill-rule="evenodd" clip-rule="evenodd" d="M18.3346 3.85087H17.5013V3.01754C17.5013 2.5592 17.1263 2.1842 16.668 2.1842C16.2096 2.1842 15.8346 2.5592 15.8346 3.01754V3.85087H15.0013C14.543 3.85087 14.168 4.22587 14.168 4.6842C14.168 5.14254 14.543 5.51754 15.0013 5.51754H15.8346V6.35087C15.8346 6.8092 16.2096 7.1842 16.668 7.1842C17.1263 7.1842 17.5013 6.8092 17.5013 6.35087V5.51754H18.3346C18.793 5.51754 19.168 5.14254 19.168 4.6842C19.168 4.22587 18.793 3.85087 18.3346 3.85087Z" fill="black" fill-opacity="0.8"/>
<path d="M2.58826 5.37647C2.48889 5.37625 2.39046 5.39566 2.29861 5.43359C2.20677 5.47152 2.12331 5.52722 2.05305 5.59748C1.98278 5.66775 1.92709 5.7512 1.88916 5.84305C1.85123 5.9349 1.83182 6.03333 1.83203 6.1327V18.2313C1.83203 18.6095 2.21006 18.9876 2.58826 18.9876H6.36906V16.7191C6.36906 16.3002 6.76886 15.9628 7.12529 15.9628H7.88134C8.23777 15.9628 8.63758 16.3002 8.63758 16.7191V18.9876H12.4184C12.7966 18.9876 13.1746 18.6095 13.1746 18.2313V6.13289C13.1748 6.03352 13.1554 5.93508 13.1175 5.84323C13.0795 5.75138 13.0239 5.66792 12.9536 5.59766C12.8833 5.52739 12.7999 5.47171 12.708 5.43378C12.6162 5.39585 12.5177 5.37643 12.4184 5.37664L2.58826 5.37647ZM4.10055 7.64498H6.36906V9.15727H4.10055V7.64498ZM8.63758 7.64498H10.9061V9.15727H8.63758V7.64498ZM4.10055 12.182H6.36906V13.6943H4.10055V12.182ZM8.63758 12.182H10.9061V13.6943H8.63758V12.182Z" fill="black" fill-opacity="0.8"/>
</svg>
