<svg width="20" height="20" viewBox="0 0 20 20" fill="none" xmlns="http://www.w3.org/2000/svg">
<path fill-rule="evenodd" clip-rule="evenodd" d="M10.0005 8.74995C9.31132 8.74995 8.75049 9.31078 8.75049 9.99995C8.75049 10.6891 9.31132 11.2499 10.0005 11.2499C10.6897 11.2499 11.2505 10.6891 11.2505 9.99995C11.2505 9.31078 10.6897 8.74995 10.0005 8.74995ZM10.0005 12.9166C8.39216 12.9166 7.08382 11.6083 7.08382 9.99995C7.08382 8.39162 8.39216 7.08329 10.0005 7.08329C11.6088 7.08329 12.9172 8.39162 12.9172 9.99995C12.9172 11.6083 11.6088 12.9166 10.0005 12.9166ZM18.2237 9.58495C17.6912 8.65828 14.7553 4.01328 9.77449 4.16911C5.16866 4.28661 2.48866 8.34495 1.77699 9.58495C1.63033 9.84245 1.63033 10.1574 1.77699 10.4149C2.30199 11.3291 5.13533 15.8333 10.0212 15.8333C10.0887 15.8333 10.157 15.8324 10.2262 15.8308C14.832 15.7133 17.512 11.6549 18.2237 10.4149C18.3703 10.1574 18.3703 9.84245 18.2237 9.58495Z" fill="#6A6A6A"/>
<mask id="mask0_2379_4450" style="mask-type:luminance" maskUnits="userSpaceOnUse" x="1" y="4" width="18" height="12">
<path fill-rule="evenodd" clip-rule="evenodd" d="M10.0005 8.74995C9.31132 8.74995 8.75049 9.31078 8.75049 9.99995C8.75049 10.6891 9.31132 11.2499 10.0005 11.2499C10.6897 11.2499 11.2505 10.6891 11.2505 9.99995C11.2505 9.31078 10.6897 8.74995 10.0005 8.74995ZM10.0005 12.9166C8.39216 12.9166 7.08382 11.6083 7.08382 9.99995C7.08382 8.39162 8.39216 7.08329 10.0005 7.08329C11.6088 7.08329 12.9172 8.39162 12.9172 9.99995C12.9172 11.6083 11.6088 12.9166 10.0005 12.9166ZM18.2237 9.58495C17.6912 8.65828 14.7553 4.01328 9.77449 4.16911C5.16866 4.28661 2.48866 8.34495 1.77699 9.58495C1.63033 9.84245 1.63033 10.1574 1.77699 10.4149C2.30199 11.3291 5.13533 15.8333 10.0212 15.8333C10.0887 15.8333 10.157 15.8324 10.2262 15.8308C14.832 15.7133 17.512 11.6549 18.2237 10.4149C18.3703 10.1574 18.3703 9.84245 18.2237 9.58495Z" fill="white"/>
</mask>
<g mask="url(#mask0_2379_4450)">
<rect width="20" height="20" fill="#6A6A6A"/>
</g>
</svg>
