<svg width="21" height="21" viewBox="0 0 21 21" fill="none" xmlns="http://www.w3.org/2000/svg">
<path fill-rule="evenodd" clip-rule="evenodd" d="M18.3932 3.637H17.5599V2.80367C17.5599 2.34534 17.1849 1.97034 16.7266 1.97034C16.2682 1.97034 15.8932 2.34534 15.8932 2.80367V3.637H15.0599C14.6016 3.637 14.2266 4.012 14.2266 4.47034C14.2266 4.92867 14.6016 5.30367 15.0599 5.30367H15.8932V6.137C15.8932 6.59534 16.2682 6.97034 16.7266 6.97034C17.1849 6.97034 17.5599 6.59534 17.5599 6.137V5.30367H18.3932C18.8516 5.30367 19.2266 4.92867 19.2266 4.47034C19.2266 4.012 18.8516 3.637 18.3932 3.637Z" fill="black" fill-opacity="0.8"/>
<path fill-rule="evenodd" clip-rule="evenodd" d="M7.5592 9.07465C6.96096 9.07465 6.47413 9.56149 6.47413 10.1597C6.47413 10.758 6.96096 11.2448 7.5592 11.2448C8.15743 11.2448 8.64427 10.758 8.64427 10.1597C8.64427 9.56149 8.15743 9.07465 7.5592 9.07465ZM7.56243 12.6911C6.1663 12.6911 5.0306 11.5554 5.0306 10.1593C5.0306 8.7632 6.1663 7.62749 7.56243 7.62749C8.95855 7.62749 10.0943 8.7632 10.0943 10.1593C10.0943 11.5554 8.95855 12.6911 7.56243 12.6911ZM7.56243 4.73438C4.3716 4.73438 1.77539 7.30527 1.77539 10.4657C1.77539 14.4255 6.87449 18.8417 7.09151 19.0276C7.2275 19.1441 7.3946 19.202 7.56243 19.202C7.73025 19.202 7.89735 19.1441 8.03335 19.0276C8.25036 18.8417 13.3495 14.4255 13.3495 10.4657C13.3495 7.30527 10.7533 4.73438 7.56243 4.73438Z" fill="black" fill-opacity="0.8"/>
</svg>
