<svg width="20" height="20" viewBox="0 0 20 20" fill="none" xmlns="http://www.w3.org/2000/svg">
<path fill-rule="evenodd" clip-rule="evenodd" d="M10.0007 11.6667C9.54065 11.6667 9.16732 12.0401 9.16732 12.5001C9.16732 12.9601 9.54065 13.3334 10.0007 13.3334C10.4607 13.3334 10.834 12.9601 10.834 12.5001C10.834 12.0401 10.4607 11.6667 10.0007 11.6667ZM10.0007 15.0001C8.62232 15.0001 7.50065 13.8784 7.50065 12.5001C7.50065 11.1217 8.62232 10.0001 10.0007 10.0001C11.379 10.0001 12.5007 11.1217 12.5007 12.5001C12.5007 13.8784 11.379 15.0001 10.0007 15.0001ZM8.33398 5.09258C8.33398 4.12258 9.08148 3.33341 10.0007 3.33341C10.9198 3.33341 11.6673 4.12258 11.6673 5.09258V6.66675H8.33398V5.09258ZM14.1673 6.66675H13.334V5.09258C13.334 3.20425 11.839 1.66675 10.0007 1.66675C8.16232 1.66675 6.66732 3.20425 6.66732 5.09258V6.66675H5.83398C4.45565 6.66675 3.33398 7.78841 3.33398 9.16675V15.8334C3.33398 17.2117 4.45565 18.3334 5.83398 18.3334H14.1673C15.5457 18.3334 16.6673 17.2117 16.6673 15.8334V9.16675C16.6673 7.78841 15.5457 6.66675 14.1673 6.66675Z" fill="black" fill-opacity="0.6"/>
<mask id="mask0_2379_5516" style="mask-type:luminance" maskUnits="userSpaceOnUse" x="3" y="1" width="14" height="18">
<path fill-rule="evenodd" clip-rule="evenodd" d="M10.0007 11.6667C9.54065 11.6667 9.16732 12.0401 9.16732 12.5001C9.16732 12.9601 9.54065 13.3334 10.0007 13.3334C10.4607 13.3334 10.834 12.9601 10.834 12.5001C10.834 12.0401 10.4607 11.6667 10.0007 11.6667ZM10.0007 15.0001C8.62232 15.0001 7.50065 13.8784 7.50065 12.5001C7.50065 11.1217 8.62232 10.0001 10.0007 10.0001C11.379 10.0001 12.5007 11.1217 12.5007 12.5001C12.5007 13.8784 11.379 15.0001 10.0007 15.0001ZM8.33398 5.09258C8.33398 4.12258 9.08148 3.33341 10.0007 3.33341C10.9198 3.33341 11.6673 4.12258 11.6673 5.09258V6.66675H8.33398V5.09258ZM14.1673 6.66675H13.334V5.09258C13.334 3.20425 11.839 1.66675 10.0007 1.66675C8.16232 1.66675 6.66732 3.20425 6.66732 5.09258V6.66675H5.83398C4.45565 6.66675 3.33398 7.78841 3.33398 9.16675V15.8334C3.33398 17.2117 4.45565 18.3334 5.83398 18.3334H14.1673C15.5457 18.3334 16.6673 17.2117 16.6673 15.8334V9.16675C16.6673 7.78841 15.5457 6.66675 14.1673 6.66675Z" fill="white"/>
</mask>
<g mask="url(#mask0_2379_5516)">
<rect width="20" height="20" fill="black" fill-opacity="0.6"/>
</g>
</svg>
