<svg width="12" height="12" viewBox="0 0 12 12" fill="none" xmlns="http://www.w3.org/2000/svg">
<path fill-rule="evenodd" clip-rule="evenodd" d="M7.357 4C7.16 4 7 3.8095 7 3.575V1.989L8.871 4H7.357ZM7 7.5H6.5V8C6.5 8.276 6.2765 8.5 6 8.5C5.7235 8.5 5.5 8.276 5.5 8V7.5H5C4.7235 7.5 4.5 7.276 4.5 7C4.5 6.724 4.7235 6.5 5 6.5H5.5V6C5.5 5.724 5.7235 5.5 6 5.5C6.2765 5.5 6.5 5.724 6.5 6V6.5H7C7.2765 6.5 7.5 6.724 7.5 7C7.5 7.276 7.2765 7.5 7 7.5ZM9.87 3.664L7.648 1.164C7.5535 1.0595 7.419 1 7.278 1H3.278C2.5735 1 2 1.561 2 2.25V9.75C2 10.439 2.5735 11 3.278 11H8.722C9.427 11 10 10.439 10 9.75V4C10 3.8755 9.9535 3.756 9.87 3.664Z" fill="#FFE58E"/>
<mask id="mask0_2449_1513" style="mask-type:luminance" maskUnits="userSpaceOnUse" x="2" y="1" width="8" height="10">
<path fill-rule="evenodd" clip-rule="evenodd" d="M7.357 4C7.16 4 7 3.8095 7 3.575V1.989L8.871 4H7.357ZM7 7.5H6.5V8C6.5 8.276 6.2765 8.5 6 8.5C5.7235 8.5 5.5 8.276 5.5 8V7.5H5C4.7235 7.5 4.5 7.276 4.5 7C4.5 6.724 4.7235 6.5 5 6.5H5.5V6C5.5 5.724 5.7235 5.5 6 5.5C6.2765 5.5 6.5 5.724 6.5 6V6.5H7C7.2765 6.5 7.5 6.724 7.5 7C7.5 7.276 7.2765 7.5 7 7.5ZM9.87 3.664L7.648 1.164C7.5535 1.0595 7.419 1 7.278 1H3.278C2.5735 1 2 1.561 2 2.25V9.75C2 10.439 2.5735 11 3.278 11H8.722C9.427 11 10 10.439 10 9.75V4C10 3.8755 9.9535 3.756 9.87 3.664Z" fill="white"/>
</mask>
<g mask="url(#mask0_2449_1513)">
<rect width="12" height="12" fill="#FFE58E"/>
</g>
</svg>
