<svg width="20" height="20" viewBox="0 0 20 20" fill="none" xmlns="http://www.w3.org/2000/svg">
<path fill-rule="evenodd" clip-rule="evenodd" d="M18.0912 9.42305L15.5912 6.91222C15.2662 6.58638 14.7378 6.58388 14.4128 6.90971C14.0862 7.23471 14.0845 7.76138 14.4095 8.08805L15.4837 9.16638H10.8337V4.50722L11.9095 5.58805C12.072 5.75138 12.2862 5.83305 12.5003 5.83305C12.7128 5.83305 12.9262 5.75222 13.0887 5.59055C13.4145 5.26555 13.4162 4.73805 13.0912 4.41222L10.602 1.91222C10.4445 1.75472 10.2628 1.67388 10.0112 1.66638C9.79033 1.66638 9.57866 1.75388 9.42283 1.90972L6.912 4.40972C6.58616 4.73472 6.5845 5.26221 6.9095 5.58805C7.23366 5.91388 7.76116 5.91555 8.08866 5.59055L9.167 4.51638V9.16638H4.507L5.58783 8.09055C5.9145 7.76555 5.91616 7.23805 5.59116 6.91222C5.26616 6.58638 4.73783 6.58388 4.41283 6.90971L1.91283 9.39888C1.75533 9.55472 1.66783 9.76638 1.667 9.98722C1.66616 10.208 1.7545 10.4205 1.9095 10.5772L4.4095 13.088C4.572 13.2514 4.78616 13.333 5.00033 13.333C5.21283 13.333 5.42616 13.2522 5.58783 13.0905C5.9145 12.7655 5.91616 12.238 5.59116 11.9122L4.517 10.833H9.167V15.493L8.09116 14.4122C7.76616 14.0855 7.23866 14.0839 6.912 14.4097C6.58616 14.7347 6.5845 15.2622 6.9095 15.588L9.39866 18.088C9.55533 18.2447 9.767 18.333 9.98783 18.333H9.9895C10.2103 18.333 10.422 18.2455 10.5778 18.0905L13.0887 15.5905C13.4145 15.2655 13.4162 14.738 13.0912 14.4122C12.7662 14.0855 12.2387 14.0839 11.912 14.4097L10.8337 15.483V10.833H15.4937L14.4128 11.9097C14.0862 12.2347 14.0845 12.7614 14.4095 13.088C14.572 13.2514 14.7862 13.333 15.0003 13.333C15.2128 13.333 15.4262 13.2522 15.5878 13.0905L18.0878 10.6014C18.2453 10.4455 18.3328 10.2339 18.3337 10.013C18.3345 9.79138 18.247 9.57971 18.0912 9.42305Z" fill="#6A6A6A"/>
<mask id="mask0_2379_4444" style="mask-type:luminance" maskUnits="userSpaceOnUse" x="1" y="1" width="18" height="18">
<path fill-rule="evenodd" clip-rule="evenodd" d="M18.0912 9.42305L15.5912 6.91222C15.2662 6.58638 14.7378 6.58388 14.4128 6.90971C14.0862 7.23471 14.0845 7.76138 14.4095 8.08805L15.4837 9.16638H10.8337V4.50722L11.9095 5.58805C12.072 5.75138 12.2862 5.83305 12.5003 5.83305C12.7128 5.83305 12.9262 5.75222 13.0887 5.59055C13.4145 5.26555 13.4162 4.73805 13.0912 4.41222L10.602 1.91222C10.4445 1.75472 10.2628 1.67388 10.0112 1.66638C9.79033 1.66638 9.57866 1.75388 9.42283 1.90972L6.912 4.40972C6.58616 4.73472 6.5845 5.26221 6.9095 5.58805C7.23366 5.91388 7.76116 5.91555 8.08866 5.59055L9.167 4.51638V9.16638H4.507L5.58783 8.09055C5.9145 7.76555 5.91616 7.23805 5.59116 6.91222C5.26616 6.58638 4.73783 6.58388 4.41283 6.90971L1.91283 9.39888C1.75533 9.55472 1.66783 9.76638 1.667 9.98722C1.66616 10.208 1.7545 10.4205 1.9095 10.5772L4.4095 13.088C4.572 13.2514 4.78616 13.333 5.00033 13.333C5.21283 13.333 5.42616 13.2522 5.58783 13.0905C5.9145 12.7655 5.91616 12.238 5.59116 11.9122L4.517 10.833H9.167V15.493L8.09116 14.4122C7.76616 14.0855 7.23866 14.0839 6.912 14.4097C6.58616 14.7347 6.5845 15.2622 6.9095 15.588L9.39866 18.088C9.55533 18.2447 9.767 18.333 9.98783 18.333H9.9895C10.2103 18.333 10.422 18.2455 10.5778 18.0905L13.0887 15.5905C13.4145 15.2655 13.4162 14.738 13.0912 14.4122C12.7662 14.0855 12.2387 14.0839 11.912 14.4097L10.8337 15.483V10.833H15.4937L14.4128 11.9097C14.0862 12.2347 14.0845 12.7614 14.4095 13.088C14.572 13.2514 14.7862 13.333 15.0003 13.333C15.2128 13.333 15.4262 13.2522 15.5878 13.0905L18.0878 10.6014C18.2453 10.4455 18.3328 10.2339 18.3337 10.013C18.3345 9.79138 18.247 9.57971 18.0912 9.42305Z" fill="white"/>
</mask>
<g mask="url(#mask0_2379_4444)">
<rect width="20" height="20" fill="#6A6A6A"/>
</g>
</svg>
