<svg width="20" height="20" viewBox="0 0 20 20" fill="none" xmlns="http://www.w3.org/2000/svg">
<path fill-rule="evenodd" clip-rule="evenodd" d="M12.2612 6.66662C11.9328 6.66662 11.6662 6.34912 11.6662 5.95829V3.31496L14.7845 6.66662H12.2612ZM11.6662 12.5H10.8328V13.3333C10.8328 13.7933 10.4603 14.1666 9.99951 14.1666C9.53868 14.1666 9.16618 13.7933 9.16618 13.3333V12.5H8.33285C7.87201 12.5 7.49951 12.1266 7.49951 11.6666C7.49951 11.2066 7.87201 10.8333 8.33285 10.8333H9.16618V9.99996C9.16618 9.53996 9.53868 9.16663 9.99951 9.16663C10.4603 9.16663 10.8328 9.53996 10.8328 9.99996V10.8333H11.6662C12.127 10.8333 12.4995 11.2066 12.4995 11.6666C12.4995 12.1266 12.127 12.5 11.6662 12.5ZM16.4497 6.10663L12.7463 1.93996C12.5888 1.76579 12.3647 1.66663 12.1297 1.66663H5.46301C4.28884 1.66663 3.33301 2.60163 3.33301 3.74996V16.25C3.33301 17.3983 4.28884 18.3333 5.46301 18.3333H14.5363C15.7113 18.3333 16.6663 17.3983 16.6663 16.25V6.66663C16.6663 6.45913 16.5888 6.25996 16.4497 6.10663Z" fill="#6A6A6A"/>
<mask id="mask0_2379_4447" style="mask-type:luminance" maskUnits="userSpaceOnUse" x="3" y="1" width="14" height="18">
<path fill-rule="evenodd" clip-rule="evenodd" d="M12.2612 6.66662C11.9328 6.66662 11.6662 6.34912 11.6662 5.95829V3.31496L14.7845 6.66662H12.2612ZM11.6662 12.5H10.8328V13.3333C10.8328 13.7933 10.4603 14.1666 9.99951 14.1666C9.53868 14.1666 9.16618 13.7933 9.16618 13.3333V12.5H8.33285C7.87201 12.5 7.49951 12.1266 7.49951 11.6666C7.49951 11.2066 7.87201 10.8333 8.33285 10.8333H9.16618V9.99996C9.16618 9.53996 9.53868 9.16663 9.99951 9.16663C10.4603 9.16663 10.8328 9.53996 10.8328 9.99996V10.8333H11.6662C12.127 10.8333 12.4995 11.2066 12.4995 11.6666C12.4995 12.1266 12.127 12.5 11.6662 12.5ZM16.4497 6.10663L12.7463 1.93996C12.5888 1.76579 12.3647 1.66663 12.1297 1.66663H5.46301C4.28884 1.66663 3.33301 2.60163 3.33301 3.74996V16.25C3.33301 17.3983 4.28884 18.3333 5.46301 18.3333H14.5363C15.7113 18.3333 16.6663 17.3983 16.6663 16.25V6.66663C16.6663 6.45913 16.5888 6.25996 16.4497 6.10663Z" fill="white"/>
</mask>
<g mask="url(#mask0_2379_4447)">
<rect width="20" height="20" fill="#6A6A6A"/>
</g>
</svg>
