<svg width="29" height="29" viewBox="0 0 29 29" fill="none" xmlns="http://www.w3.org/2000/svg">
<path d="M14.7694 13.328H27.8734C27.948 13.6267 28.0102 13.9876 28.06 14.4107C28.1098 14.8338 28.1347 15.2569 28.1347 15.68C28.1347 17.3973 27.8734 19.0151 27.3507 20.5333C26.828 22.0516 26.0067 23.408 24.8867 24.6027C23.692 25.872 22.2609 26.8551 20.5934 27.552C18.9258 28.2489 17.0218 28.5973 14.8814 28.5973C12.94 28.5973 11.1107 28.2489 9.39335 27.552C7.67602 26.8551 6.18269 25.8844 4.91335 24.64C3.64402 23.3956 2.63602 21.9271 1.88935 20.2347C1.14269 18.5173 0.769353 16.6507 0.769353 14.6347C0.769353 12.6187 1.14269 10.7644 1.88935 9.072C2.63602 7.35466 3.64402 5.87377 4.91335 4.62933C6.18269 3.38489 7.67602 2.41422 9.39335 1.71733C11.1107 1.02044 12.94 0.671996 14.8814 0.671996C17.0467 0.671996 18.9756 1.04533 20.668 1.792C22.3854 2.53866 23.8538 3.57155 25.0734 4.89066L21.6014 8.288C20.7302 7.36711 19.7596 6.67022 18.6894 6.19733C17.6191 5.69955 16.3374 5.45066 14.844 5.45066C13.6245 5.45066 12.4671 5.67466 11.372 6.12266C10.2769 6.54578 9.31869 7.15555 8.49735 7.952C7.67602 8.74844 7.01646 9.71911 6.51869 10.864C6.0458 11.984 5.80935 13.2409 5.80935 14.6347C5.80935 16.0284 6.0458 17.2978 6.51869 18.4427C7.01646 19.5627 7.67602 20.5209 8.49735 21.3173C9.34358 22.1138 10.3142 22.736 11.4094 23.184C12.5045 23.6071 13.6742 23.8187 14.9187 23.8187C16.3374 23.8187 17.532 23.6196 18.5027 23.2213C19.4982 22.7982 20.3445 22.2631 21.0414 21.616C21.5391 21.168 21.9622 20.608 22.3107 19.936C22.684 19.2391 22.9702 18.4676 23.1694 17.6213H14.7694V13.328Z" fill="#C11111"/>
</svg>
