<svg width="12" height="12" viewBox="0 0 12 12" fill="none" xmlns="http://www.w3.org/2000/svg">
<path fill-rule="evenodd" clip-rule="evenodd" d="M4.5 5.5C5.603 5.5 6.5 4.603 6.5 3.5C6.5 2.397 5.603 1.5 4.5 1.5C3.397 1.5 2.5 2.397 2.5 3.5C2.5 4.603 3.397 5.5 4.5 5.5ZM8.5 6.5C9.327 6.5 10 5.827 10 5C10 4.173 9.327 3.5 8.5 3.5C7.673 3.5 7 4.173 7 5C7 5.827 7.673 6.5 8.5 6.5ZM11 9.5C11 9.776 10.7765 10 10.5 10H8C8 10.276 7.7765 10.5 7.5 10.5H1.5C1.2235 10.5 1 10.276 1 10C1 8.07 2.5705 6.5 4.5 6.5C5.4635 6.5 6.3365 6.8915 6.97 7.523C7.4045 7.187 7.9395 7 8.5 7C9.8785 7 11 8.1215 11 9.5Z" fill="#121212"/>
<mask id="mask0_2449_6213" style="mask-type:luminance" maskUnits="userSpaceOnUse" x="1" y="1" width="10" height="10">
<path fill-rule="evenodd" clip-rule="evenodd" d="M4.5 5.5C5.603 5.5 6.5 4.603 6.5 3.5C6.5 2.397 5.603 1.5 4.5 1.5C3.397 1.5 2.5 2.397 2.5 3.5C2.5 4.603 3.397 5.5 4.5 5.5ZM8.5 6.5C9.327 6.5 10 5.827 10 5C10 4.173 9.327 3.5 8.5 3.5C7.673 3.5 7 4.173 7 5C7 5.827 7.673 6.5 8.5 6.5ZM11 9.5C11 9.776 10.7765 10 10.5 10H8C8 10.276 7.7765 10.5 7.5 10.5H1.5C1.2235 10.5 1 10.276 1 10C1 8.07 2.5705 6.5 4.5 6.5C5.4635 6.5 6.3365 6.8915 6.97 7.523C7.4045 7.187 7.9395 7 8.5 7C9.8785 7 11 8.1215 11 9.5Z" fill="white"/>
</mask>
<g mask="url(#mask0_2449_6213)">
<rect width="12" height="12" fill="#121212"/>
</g>
</svg>
