<svg width="12" height="12" viewBox="0 0 12 12" fill="none" xmlns="http://www.w3.org/2000/svg">
<path fill-rule="evenodd" clip-rule="evenodd" d="M7.357 4C7.16 4 7 3.8095 7 3.575V1.989L8.871 4H7.357ZM7.5 9H4.5C4.224 9 4 8.776 4 8.5C4 8.224 4.224 8 4.5 8H7.5C7.7765 8 8 8.224 8 8.5C8 8.776 7.7765 9 7.5 9ZM4.5 6H6C6.276 6 6.5 6.224 6.5 6.5C6.5 6.776 6.276 7 6 7H4.5C4.224 7 4 6.776 4 6.5C4 6.224 4.224 6 4.5 6ZM9.87 3.664L7.648 1.164C7.5535 1.0595 7.419 1 7.278 1H3.278C2.5735 1 2 1.561 2 2.25V9.75C2 10.439 2.5735 11 3.278 11H8.722C9.427 11 10 10.439 10 9.75V4C10 3.8755 9.9535 3.756 9.87 3.664Z" fill="white" fill-opacity="0.6"/>
<mask id="mask0_2449_11181" style="mask-type:luminance" maskUnits="userSpaceOnUse" x="2" y="1" width="8" height="10">
<path fill-rule="evenodd" clip-rule="evenodd" d="M7.357 4C7.16 4 7 3.8095 7 3.575V1.989L8.871 4H7.357ZM7.5 9H4.5C4.224 9 4 8.776 4 8.5C4 8.224 4.224 8 4.5 8H7.5C7.7765 8 8 8.224 8 8.5C8 8.776 7.7765 9 7.5 9ZM4.5 6H6C6.276 6 6.5 6.224 6.5 6.5C6.5 6.776 6.276 7 6 7H4.5C4.224 7 4 6.776 4 6.5C4 6.224 4.224 6 4.5 6ZM9.87 3.664L7.648 1.164C7.5535 1.0595 7.419 1 7.278 1H3.278C2.5735 1 2 1.561 2 2.25V9.75C2 10.439 2.5735 11 3.278 11H8.722C9.427 11 10 10.439 10 9.75V4C10 3.8755 9.9535 3.756 9.87 3.664Z" fill="white"/>
</mask>
<g mask="url(#mask0_2449_11181)">
<rect width="12" height="12" fill="white" fill-opacity="0.6"/>
</g>
</svg>
