<svg width="20" height="20" viewBox="0 0 20 20" fill="none" xmlns="http://www.w3.org/2000/svg">
<path fill-rule="evenodd" clip-rule="evenodd" d="M14.9711 5.6073L12.7261 3.3623L11.1028 4.98647L13.3486 7.2323L14.9711 5.6073ZM4.24207 14.9965C4.21707 14.999 4.19207 14.9998 4.16707 14.9998C3.94707 14.9998 3.73457 14.9131 3.57707 14.7556C3.4029 14.5806 3.31457 14.3373 3.33623 14.0915L3.65207 10.6165C3.68707 10.2356 3.8554 9.87564 4.12707 9.60481L11.6237 2.10814C12.2087 1.52064 13.2696 1.54981 13.8871 2.16564L16.1687 4.44731L16.1696 4.44814C16.8071 5.08648 16.8329 6.10148 16.2262 6.70981L8.72873 14.2073C8.4579 14.4781 8.09873 14.6465 7.71706 14.6815L4.24207 14.9965ZM4.16686 16.6667H15.8335C16.2919 16.6667 16.6669 17.0417 16.6669 17.5001C16.6669 17.9584 16.2919 18.3334 15.8335 18.3334H4.16686C3.70853 18.3334 3.33353 17.9584 3.33353 17.5001C3.33353 17.0417 3.70853 16.6667 4.16686 16.6667Z" fill="#6A6A6A"/>
<mask id="mask0_2379_4441" style="mask-type:luminance" maskUnits="userSpaceOnUse" x="3" y="1" width="14" height="18">
<path fill-rule="evenodd" clip-rule="evenodd" d="M14.9711 5.6073L12.7261 3.3623L11.1028 4.98647L13.3486 7.2323L14.9711 5.6073ZM4.24207 14.9965C4.21707 14.999 4.19207 14.9998 4.16707 14.9998C3.94707 14.9998 3.73457 14.9131 3.57707 14.7556C3.4029 14.5806 3.31457 14.3373 3.33623 14.0915L3.65207 10.6165C3.68707 10.2356 3.8554 9.87564 4.12707 9.60481L11.6237 2.10814C12.2087 1.52064 13.2696 1.54981 13.8871 2.16564L16.1687 4.44731L16.1696 4.44814C16.8071 5.08648 16.8329 6.10148 16.2262 6.70981L8.72873 14.2073C8.4579 14.4781 8.09873 14.6465 7.71706 14.6815L4.24207 14.9965ZM4.16686 16.6667H15.8335C16.2919 16.6667 16.6669 17.0417 16.6669 17.5001C16.6669 17.9584 16.2919 18.3334 15.8335 18.3334H4.16686C3.70853 18.3334 3.33353 17.9584 3.33353 17.5001C3.33353 17.0417 3.70853 16.6667 4.16686 16.6667Z" fill="white"/>
</mask>
<g mask="url(#mask0_2379_4441)">
<rect width="20" height="20" fill="#6A6A6A"/>
</g>
</svg>
