<svg width="18" height="18" viewBox="0 0 18 18" fill="none" xmlns="http://www.w3.org/2000/svg">
<path fill-rule="evenodd" clip-rule="evenodd" d="M15.75 4.50195H15V3.75195C15 3.33945 14.6625 3.00195 14.25 3.00195C13.8375 3.00195 13.5 3.33945 13.5 3.75195V4.50195H12.75C12.3375 4.50195 12 4.83945 12 5.25195C12 5.66445 12.3375 6.00195 12.75 6.00195H13.5V6.75195C13.5 7.16445 13.8375 7.50195 14.25 7.50195C14.6625 7.50195 15 7.16445 15 6.75195V6.00195H15.75C16.1625 6.00195 16.5 5.66445 16.5 5.25195C16.5 4.83945 16.1625 4.50195 15.75 4.50195Z" fill="black" fill-opacity="0.8"/>
</svg>
