<svg width="20" height="20" viewBox="0 0 20 20" fill="none" xmlns="http://www.w3.org/2000/svg">
<path fill-rule="evenodd" clip-rule="evenodd" d="M13.3336 13.3333C13.3336 13.7916 12.9586 14.1666 12.5003 14.1666C12.0419 14.1666 11.6669 13.7916 11.6669 13.3333V9.99996C11.6669 9.54163 12.0419 9.16663 12.5003 9.16663C12.9586 9.16663 13.3336 9.54163 13.3336 9.99996V13.3333ZM8.33366 3.60663C8.33366 3.47746 8.51199 3.33329 8.75032 3.33329H11.2503C11.4887 3.33329 11.667 3.47746 11.667 3.60663V4.99996H8.33366V3.60663ZM8.33369 13.3333C8.33369 13.7916 7.95869 14.1666 7.50036 14.1666C7.04202 14.1666 6.66702 13.7916 6.66702 13.3333V9.99996C6.66702 9.54163 7.04202 9.16663 7.50036 9.16663C7.95869 9.16663 8.33369 9.54163 8.33369 9.99996V13.3333ZM17.5003 4.99996H16.667H13.3337V3.60663C13.3337 2.53663 12.3995 1.66663 11.2503 1.66663H8.75032C7.60116 1.66663 6.66699 2.53663 6.66699 3.60663V4.99996H3.33366H2.50033C2.04199 4.99996 1.66699 5.37496 1.66699 5.83329C1.66699 6.29163 2.04199 6.66663 2.50033 6.66663H3.33366V15.8333C3.33366 17.2116 4.45533 18.3333 5.83366 18.3333H14.167C15.5453 18.3333 16.667 17.2116 16.667 15.8333V6.66663H17.5003C17.9587 6.66663 18.3337 6.29163 18.3337 5.83329C18.3337 5.37496 17.9587 4.99996 17.5003 4.99996Z" fill="#FF6161" fill-opacity="0.8"/>
<mask id="mask0_2379_4438" style="mask-type:luminance" maskUnits="userSpaceOnUse" x="1" y="1" width="18" height="18">
<path fill-rule="evenodd" clip-rule="evenodd" d="M13.3336 13.3333C13.3336 13.7916 12.9586 14.1666 12.5003 14.1666C12.0419 14.1666 11.6669 13.7916 11.6669 13.3333V9.99996C11.6669 9.54163 12.0419 9.16663 12.5003 9.16663C12.9586 9.16663 13.3336 9.54163 13.3336 9.99996V13.3333ZM8.33366 3.60663C8.33366 3.47746 8.51199 3.33329 8.75032 3.33329H11.2503C11.4887 3.33329 11.667 3.47746 11.667 3.60663V4.99996H8.33366V3.60663ZM8.33369 13.3333C8.33369 13.7916 7.95869 14.1666 7.50036 14.1666C7.04202 14.1666 6.66702 13.7916 6.66702 13.3333V9.99996C6.66702 9.54163 7.04202 9.16663 7.50036 9.16663C7.95869 9.16663 8.33369 9.54163 8.33369 9.99996V13.3333ZM17.5003 4.99996H16.667H13.3337V3.60663C13.3337 2.53663 12.3995 1.66663 11.2503 1.66663H8.75032C7.60116 1.66663 6.66699 2.53663 6.66699 3.60663V4.99996H3.33366H2.50033C2.04199 4.99996 1.66699 5.37496 1.66699 5.83329C1.66699 6.29163 2.04199 6.66663 2.50033 6.66663H3.33366V15.8333C3.33366 17.2116 4.45533 18.3333 5.83366 18.3333H14.167C15.5453 18.3333 16.667 17.2116 16.667 15.8333V6.66663H17.5003C17.9587 6.66663 18.3337 6.29163 18.3337 5.83329C18.3337 5.37496 17.9587 4.99996 17.5003 4.99996Z" fill="white"/>
</mask>
<g mask="url(#mask0_2379_4438)">
<rect width="20" height="20" fill="#FF6161"/>
</g>
</svg>
