<svg width="21" height="21" viewBox="0 0 21 21" fill="none" xmlns="http://www.w3.org/2000/svg">
<path fill-rule="evenodd" clip-rule="evenodd" d="M8.83333 9.58464C10.6717 9.58464 12.1667 8.08964 12.1667 6.2513C12.1667 4.41297 10.6717 2.91797 8.83333 2.91797C6.995 2.91797 5.5 4.41297 5.5 6.2513C5.5 8.08964 6.995 9.58464 8.83333 9.58464ZM18 5.41797H17.1667V4.58464C17.1667 4.1263 16.7917 3.7513 16.3333 3.7513C15.875 3.7513 15.5 4.1263 15.5 4.58464V5.41797H14.6667C14.2083 5.41797 13.8333 5.79297 13.8333 6.2513C13.8333 6.70964 14.2083 7.08464 14.6667 7.08464H15.5V7.91797C15.5 8.3763 15.875 8.7513 16.3333 8.7513C16.7917 8.7513 17.1667 8.3763 17.1667 7.91797V7.08464H18C18.4583 7.08464 18.8333 6.70964 18.8333 6.2513C18.8333 5.79297 18.4583 5.41797 18 5.41797ZM14.6667 17.0846C14.6667 17.5446 14.2942 17.918 13.8333 17.918H3.83333C3.3725 17.918 3 17.5446 3 17.0846C3 13.868 5.6175 11.2513 8.83333 11.2513C12.0492 11.2513 14.6667 13.868 14.6667 17.0846Z" fill="black" fill-opacity="0.8"/>
</svg>
