<svg width="20" height="20" viewBox="0 0 20 20" fill="none" xmlns="http://www.w3.org/2000/svg">
<path d="M16.5087 7.2542L12.7427 3.48825C11.953 2.69848 10.8639 2.2745 9.74993 2.33269L5.59325 2.53221C3.93058 2.60703 2.60876 3.92886 2.52563 5.58321L2.3261 9.73989C2.27622 10.8539 2.69189 11.9429 3.48166 12.7327L7.24761 16.4986C8.79389 18.0449 11.3045 18.0449 12.8591 16.4986L16.5087 12.8491C18.0633 11.3111 18.0633 8.80048 16.5087 7.2542ZM7.92099 10.3135C6.60748 10.3135 5.52674 9.24109 5.52674 7.91926C5.52674 6.59744 6.60748 5.52502 7.92099 5.52502C9.2345 5.52502 10.3152 6.59744 10.3152 7.91926C10.3152 9.24109 9.2345 10.3135 7.92099 10.3135ZM14.5966 11.2695L11.2713 14.5949C11.1466 14.7196 10.9886 14.7778 10.8307 14.7778C10.6727 14.7778 10.5148 14.7196 10.3901 14.5949C10.149 14.3538 10.149 13.9548 10.3901 13.7137L13.7154 10.3883C13.9565 10.1472 14.3555 10.1472 14.5966 10.3883C14.8377 10.6294 14.8377 11.0285 14.5966 11.2695Z" fill="#ffffff"/>
</svg>
