<svg width="20" height="20" viewBox="0 0 20 20" fill="none" xmlns="http://www.w3.org/2000/svg">
<path fill-rule="evenodd" clip-rule="evenodd" d="M11.2539 3.80554H8.74587C8.60732 2.39364 7.5329 1.3277 6.2832 1.3277C5.0335 1.3277 3.95908 2.39364 3.82052 3.80554H3.18586C2.15961 3.80554 1.32751 4.63748 1.32751 5.66388C1.32751 8.25545 1.32751 14.2224 1.32751 16.8139C1.32751 17.3068 1.52331 17.7795 1.87179 18.128C2.22041 18.4765 2.69303 18.6723 3.18586 18.6723H16.8138C17.8402 18.6723 18.6721 17.8403 18.6721 16.8139V5.66388C18.6721 5.17105 18.4763 4.69829 18.1278 4.34981C17.7794 4.00133 17.3066 3.80554 16.8138 3.80554H16.1792C16.0407 2.39364 14.9663 1.3277 13.7166 1.3277C12.4669 1.3277 11.3925 2.39364 11.2539 3.80554ZM10.514 9.9345C10.3989 9.76339 10.2061 9.66066 9.99988 9.66066C9.79353 9.66066 9.60086 9.76339 9.48579 9.9345L8.53075 11.3553L6.88441 11.8245C6.68594 11.8812 6.5288 12.0326 6.46502 12.2289C6.40139 12.4251 6.43945 12.6401 6.56671 12.8024L7.62269 14.1498L7.56025 15.8605C7.55282 16.0667 7.64841 16.263 7.81522 16.3843C7.98217 16.5055 8.19833 16.5358 8.39205 16.4649L9.99988 15.8769L11.6076 16.4649C11.8013 16.5358 12.0176 16.5055 12.1844 16.3843C12.3514 16.263 12.4469 16.0667 12.4394 15.8605L12.3769 14.1498L13.4331 12.8024C13.5603 12.6401 13.5984 12.4251 13.5346 12.2289C13.4708 12.0326 13.3137 11.8812 13.1154 11.8245L11.469 11.3553L10.514 9.9345ZM12.7232 5.04438C12.9444 5.41665 13.2985 5.66388 13.7166 5.66388C14.0584 5.66388 14.3359 5.94144 14.3359 6.28338C14.3359 6.62517 14.0584 6.90273 13.7166 6.90273C12.6575 6.90273 11.7243 6.13724 11.3798 5.04438H5.2898C5.51102 5.41665 5.86514 5.66388 6.2832 5.66388C6.62498 5.66388 6.90255 5.94144 6.90255 6.28338C6.90255 6.62517 6.62498 6.90273 6.2832 6.90273C5.22409 6.90273 4.2909 6.13724 3.94644 5.04438H3.18586C2.84377 5.04438 2.56651 5.3218 2.56651 5.66388V7.52223H17.4333V5.66388C17.4333 5.4996 17.368 5.34202 17.2517 5.22591C17.1356 5.10965 16.978 5.04438 16.8138 5.04438H12.7232ZM14.9306 3.80554C14.8188 3.11364 14.3384 2.56669 13.7166 2.56669C13.0945 2.56669 12.6142 3.11364 12.5024 3.80554H14.9306ZM7.49722 3.80554C7.38542 3.11364 6.90507 2.56669 6.2832 2.56669C5.66117 2.56669 5.18083 3.11364 5.06903 3.80554H7.49722Z" fill="#ffffff"/>
</svg>
