<svg width="20" height="20" viewBox="0 0 20 20" fill="none" xmlns="http://www.w3.org/2000/svg">
<path fill-rule="evenodd" clip-rule="evenodd" d="M10.5954 1.91717L17.0196 8.48717C17.3246 8.8005 17.4996 9.23717 17.4996 9.68633V16.6663C17.4996 17.5855 16.7937 18.333 15.9262 18.333H13.3329V10.833C13.3329 10.373 12.9604 9.99967 12.4996 9.99967H7.49957C7.03874 9.99967 6.66624 10.373 6.66624 10.833V18.333H4.07374C3.20624 18.333 2.49957 17.5855 2.49957 16.6663V9.68633C2.49957 9.23717 2.67457 8.8005 2.97874 8.488L9.40374 1.91717C9.71791 1.59634 10.2812 1.59634 10.5954 1.91717ZM11.6664 17.5H8.33307V11.6667H11.6664V17.5Z" fill="#ffffff"/>
</svg>