<svg width="20" height="20" viewBox="0 0 20 20" fill="none" xmlns="http://www.w3.org/2000/svg">
<path fill-rule="evenodd" clip-rule="evenodd" d="M13.3328 10.8326C12.8728 10.8326 12.4994 10.4593 12.4994 9.99931C12.4994 9.53931 12.8728 9.16598 13.3328 9.16598C13.7928 9.16598 14.1661 9.53931 14.1661 9.99931C14.1661 10.4593 13.7928 10.8326 13.3328 10.8326ZM9.99945 10.8326C9.53945 10.8326 9.16612 10.4593 9.16612 9.99931C9.16612 9.53931 9.53945 9.16598 9.99945 9.16598C10.4594 9.16598 10.8328 9.53931 10.8328 9.99931C10.8328 10.4593 10.4594 10.8326 9.99945 10.8326ZM6.66612 10.8326C6.20612 10.8326 5.83278 10.4593 5.83278 9.99931C5.83278 9.53931 6.20612 9.16598 6.66612 9.16598C7.12612 9.16598 7.49945 9.53931 7.49945 9.99931C7.49945 10.4593 7.12612 10.8326 6.66612 10.8326ZM15.8919 4.10681C13.9886 2.20348 11.3544 1.35431 8.66362 1.77014C5.26612 2.30014 2.44945 5.03681 1.81362 8.42598C1.50778 10.0576 1.68362 11.7193 2.32278 13.2301C2.40445 13.4218 2.42945 13.6018 2.39695 13.7626L1.68278 17.336C1.62778 17.6093 1.71362 17.8918 1.91028 18.0885C2.06778 18.246 2.28028 18.3326 2.49945 18.3326C2.55362 18.3326 2.60862 18.3276 2.66278 18.316L6.23195 17.6026C6.43695 17.5635 6.63612 17.621 6.76862 17.676C8.28028 18.3151 9.94195 18.4901 11.5728 18.1851C14.9619 17.5493 17.6986 14.7326 18.2286 11.3351C18.6478 8.64514 17.7961 6.01098 15.8919 4.10681Z" fill="#212121"/>
<mask id="mask0_2003_651" style="mask-type:luminance" maskUnits="userSpaceOnUse" x="1" y="1" width="18" height="18">
<path fill-rule="evenodd" clip-rule="evenodd" d="M13.3328 10.8326C12.8728 10.8326 12.4994 10.4593 12.4994 9.99931C12.4994 9.53931 12.8728 9.16598 13.3328 9.16598C13.7928 9.16598 14.1661 9.53931 14.1661 9.99931C14.1661 10.4593 13.7928 10.8326 13.3328 10.8326ZM9.99945 10.8326C9.53945 10.8326 9.16612 10.4593 9.16612 9.99931C9.16612 9.53931 9.53945 9.16598 9.99945 9.16598C10.4594 9.16598 10.8328 9.53931 10.8328 9.99931C10.8328 10.4593 10.4594 10.8326 9.99945 10.8326ZM6.66612 10.8326C6.20612 10.8326 5.83278 10.4593 5.83278 9.99931C5.83278 9.53931 6.20612 9.16598 6.66612 9.16598C7.12612 9.16598 7.49945 9.53931 7.49945 9.99931C7.49945 10.4593 7.12612 10.8326 6.66612 10.8326ZM15.8919 4.10681C13.9886 2.20348 11.3544 1.35431 8.66362 1.77014C5.26612 2.30014 2.44945 5.03681 1.81362 8.42598C1.50778 10.0576 1.68362 11.7193 2.32278 13.2301C2.40445 13.4218 2.42945 13.6018 2.39695 13.7626L1.68278 17.336C1.62778 17.6093 1.71362 17.8918 1.91028 18.0885C2.06778 18.246 2.28028 18.3326 2.49945 18.3326C2.55362 18.3326 2.60862 18.3276 2.66278 18.316L6.23195 17.6026C6.43695 17.5635 6.63612 17.621 6.76862 17.676C8.28028 18.3151 9.94195 18.4901 11.5728 18.1851C14.9619 17.5493 17.6986 14.7326 18.2286 11.3351C18.6478 8.64514 17.7961 6.01098 15.8919 4.10681Z" fill="#212121"/>
</mask>
<g mask="url(#mask0_2003_651)">
<rect x="-0.000244141" width="20" height="20" fill="#212121"/>
</g>
</svg>
