<svg width="20" height="20" viewBox="0 0 20 20" fill="none" xmlns="http://www.w3.org/2000/svg">
<path d="M13.1177 2.55513H6.87893C4.169 2.55513 2.55347 4.17066 2.55347 6.88059V13.1119C2.55347 15.8293 4.169 17.4448 6.87893 17.4448H13.1103C15.8202 17.4448 17.4357 15.8293 17.4357 13.1194V6.88059C17.4432 4.17066 15.8276 2.55513 13.1177 2.55513ZM6.27589 10.9753C5.73986 10.9753 5.30062 10.536 5.30062 9.99998C5.30062 9.46395 5.73986 9.02471 6.27589 9.02471C6.81192 9.02471 7.25117 9.46395 7.25117 9.99998C7.25117 10.536 6.81192 10.9753 6.27589 10.9753ZM9.99832 10.9753C9.46229 10.9753 9.02305 10.536 9.02305 9.99998C9.02305 9.46395 9.46229 9.02471 9.99832 9.02471C10.5344 9.02471 10.9736 9.46395 10.9736 9.99998C10.9736 10.536 10.5344 10.9753 9.99832 10.9753ZM13.7207 10.9753C13.1847 10.9753 12.7455 10.536 12.7455 9.99998C12.7455 9.46395 13.1847 9.02471 13.7207 9.02471C14.2568 9.02471 14.696 9.46395 14.696 9.99998C14.696 10.536 14.2568 10.9753 13.7207 10.9753Z" fill="#212121"/>
</svg>
