<svg width="20" height="20" viewBox="0 0 20 20" fill="none" xmlns="http://www.w3.org/2000/svg">
<path fill-rule="evenodd" clip-rule="evenodd" d="M7.49978 9.16667C9.33811 9.16667 10.8331 7.67167 10.8331 5.83333C10.8331 3.995 9.33811 2.5 7.49978 2.5C5.66144 2.5 4.16644 3.995 4.16644 5.83333C4.16644 7.67167 5.66144 9.16667 7.49978 9.16667ZM14.1664 10.8333C15.5448 10.8333 16.6664 9.71167 16.6664 8.33333C16.6664 6.955 15.5448 5.83333 14.1664 5.83333C12.7881 5.83333 11.6664 6.955 11.6664 8.33333C11.6664 9.71167 12.7881 10.8333 14.1664 10.8333ZM18.3331 15.8333C18.3331 16.2933 17.9606 16.6667 17.4998 16.6667H13.3331C13.3331 17.1267 12.9606 17.5 12.4998 17.5H2.49978C2.03894 17.5 1.66644 17.1267 1.66644 16.6667C1.66644 13.45 4.28394 10.8333 7.49978 10.8333C9.10561 10.8333 10.5606 11.4858 11.6164 12.5383C12.3406 11.9783 13.2323 11.6667 14.1664 11.6667C16.4639 11.6667 18.3331 13.5358 18.3331 15.8333Z" fill="white"/>
<mask id="mask0_2003_666" style="mask-type:luminance" maskUnits="userSpaceOnUse" x="1" y="2" width="18" height="16">
<path fill-rule="evenodd" clip-rule="evenodd" d="M7.49978 9.16667C9.33811 9.16667 10.8331 7.67167 10.8331 5.83333C10.8331 3.995 9.33811 2.5 7.49978 2.5C5.66144 2.5 4.16644 3.995 4.16644 5.83333C4.16644 7.67167 5.66144 9.16667 7.49978 9.16667ZM14.1664 10.8333C15.5448 10.8333 16.6664 9.71167 16.6664 8.33333C16.6664 6.955 15.5448 5.83333 14.1664 5.83333C12.7881 5.83333 11.6664 6.955 11.6664 8.33333C11.6664 9.71167 12.7881 10.8333 14.1664 10.8333ZM18.3331 15.8333C18.3331 16.2933 17.9606 16.6667 17.4998 16.6667H13.3331C13.3331 17.1267 12.9606 17.5 12.4998 17.5H2.49978C2.03894 17.5 1.66644 17.1267 1.66644 16.6667C1.66644 13.45 4.28394 10.8333 7.49978 10.8333C9.10561 10.8333 10.5606 11.4858 11.6164 12.5383C12.3406 11.9783 13.2323 11.6667 14.1664 11.6667C16.4639 11.6667 18.3331 13.5358 18.3331 15.8333Z" fill="white"/>
</mask>
<g mask="url(#mask0_2003_666)">
<rect x="-0.000244141" width="20" height="20" fill="white"/>
</g>
</svg>
