<svg width="20" height="20" viewBox="0 0 20 20" fill="none" xmlns="http://www.w3.org/2000/svg">
<path fill-rule="evenodd" clip-rule="evenodd" d="M10.8327 3.33329C14.0485 3.33329 16.666 5.95079 16.666 9.16663C16.666 9.62746 17.0385 9.99996 17.4993 9.99996C17.9602 9.99996 18.3327 9.62746 18.3327 9.16663C18.3327 5.03079 14.9685 1.66663 10.8327 1.66663C10.3727 1.66663 9.99935 2.03913 9.99935 2.49996C9.99935 2.96079 10.3727 3.33329 10.8327 3.33329ZM10.8327 6.66663C12.211 6.66663 13.3327 7.78829 13.3327 9.16663C13.3327 9.62746 13.7052 9.99996 14.166 9.99996C14.6268 9.99996 14.9993 9.62746 14.9993 9.16663C14.9993 6.86913 13.1302 4.99996 10.8327 4.99996C10.3727 4.99996 9.99935 5.37246 9.99935 5.83329C9.99935 6.29413 10.3727 6.66663 10.8327 6.66663ZM17.5243 12.7185C17.8043 12.7827 18.0318 12.986 18.1252 13.2568C18.1935 13.4527 18.246 13.6568 18.2793 13.8652C18.3144 14.0727 18.3327 14.2843 18.3327 14.5002C18.3327 16.6135 16.6135 18.3335 14.4993 18.3335C7.42351 18.3335 1.66602 12.5768 1.66602 5.49933C1.66602 3.38599 3.38602 1.66683 5.49935 1.66683C5.71602 1.66683 5.93018 1.68516 6.13768 1.72099C6.34018 1.75349 6.54435 1.80516 6.74185 1.87349C7.01352 1.96766 7.21685 2.19516 7.28102 2.47516L8.42185 7.44433C8.48518 7.71849 8.40602 8.00516 8.21185 8.20766C8.09768 8.32683 8.09518 8.32933 7.06185 8.86933C7.89852 10.6818 9.35268 12.1302 11.1285 12.9393C11.6702 11.9052 11.6727 11.9018 11.791 11.7877C11.9943 11.5935 12.2802 11.516 12.5543 11.5768L17.5243 12.7185Z" fill="#0EAB00"/>
<mask id="mask0_2379_5186" style="mask-type:luminance" maskUnits="userSpaceOnUse" x="1" y="1" width="18" height="18">
<path fill-rule="evenodd" clip-rule="evenodd" d="M10.8327 3.33329C14.0485 3.33329 16.666 5.95079 16.666 9.16663C16.666 9.62746 17.0385 9.99996 17.4993 9.99996C17.9602 9.99996 18.3327 9.62746 18.3327 9.16663C18.3327 5.03079 14.9685 1.66663 10.8327 1.66663C10.3727 1.66663 9.99935 2.03913 9.99935 2.49996C9.99935 2.96079 10.3727 3.33329 10.8327 3.33329ZM10.8327 6.66663C12.211 6.66663 13.3327 7.78829 13.3327 9.16663C13.3327 9.62746 13.7052 9.99996 14.166 9.99996C14.6268 9.99996 14.9993 9.62746 14.9993 9.16663C14.9993 6.86913 13.1302 4.99996 10.8327 4.99996C10.3727 4.99996 9.99935 5.37246 9.99935 5.83329C9.99935 6.29413 10.3727 6.66663 10.8327 6.66663ZM17.5243 12.7185C17.8043 12.7827 18.0318 12.986 18.1252 13.2568C18.1935 13.4527 18.246 13.6568 18.2793 13.8652C18.3144 14.0727 18.3327 14.2843 18.3327 14.5002C18.3327 16.6135 16.6135 18.3335 14.4993 18.3335C7.42351 18.3335 1.66602 12.5768 1.66602 5.49933C1.66602 3.38599 3.38602 1.66683 5.49935 1.66683C5.71602 1.66683 5.93018 1.68516 6.13768 1.72099C6.34018 1.75349 6.54435 1.80516 6.74185 1.87349C7.01352 1.96766 7.21685 2.19516 7.28102 2.47516L8.42185 7.44433C8.48518 7.71849 8.40602 8.00516 8.21185 8.20766C8.09768 8.32683 8.09518 8.32933 7.06185 8.86933C7.89852 10.6818 9.35268 12.1302 11.1285 12.9393C11.6702 11.9052 11.6727 11.9018 11.791 11.7877C11.9943 11.5935 12.2802 11.516 12.5543 11.5768L17.5243 12.7185Z" fill="white"/>
</mask>
<g mask="url(#mask0_2379_5186)">
<rect width="20" height="20" fill="#0EAB00"/>
</g>
</svg>
