<svg width="12" height="12" viewBox="0 0 12 12" fill="none" xmlns="http://www.w3.org/2000/svg">
<path fill-rule="evenodd" clip-rule="evenodd" d="M6.5 6.5C6.5 6.776 6.276 7 6 7C5.724 7 5.5 6.776 5.5 6.5V4C5.5 3.724 5.724 3.5 6 3.5C6.276 3.5 6.5 3.724 6.5 4V6.5ZM6 8.5C5.724 8.5 5.5 8.276 5.5 8C5.5 7.724 5.724 7.5 6 7.5C6.276 7.5 6.5 7.724 6.5 8C6.5 8.276 6.276 8.5 6 8.5ZM6 1C3.2385 1 1 3.2385 1 6C1 8.7615 3.2385 11 6 11C8.7615 11 11 8.7615 11 6C11 3.2385 8.7615 1 6 1Z" fill="white" fill-opacity="0.4"/>
<mask id="mask0_2379_5198" style="mask-type:luminance" maskUnits="userSpaceOnUse" x="1" y="1" width="10" height="10">
<path fill-rule="evenodd" clip-rule="evenodd" d="M6.5 6.5C6.5 6.776 6.276 7 6 7C5.724 7 5.5 6.776 5.5 6.5V4C5.5 3.724 5.724 3.5 6 3.5C6.276 3.5 6.5 3.724 6.5 4V6.5ZM6 8.5C5.724 8.5 5.5 8.276 5.5 8C5.5 7.724 5.724 7.5 6 7.5C6.276 7.5 6.5 7.724 6.5 8C6.5 8.276 6.276 8.5 6 8.5ZM6 1C3.2385 1 1 3.2385 1 6C1 8.7615 3.2385 11 6 11C8.7615 11 11 8.7615 11 6C11 3.2385 8.7615 1 6 1Z" fill="white"/>
</mask>
<g mask="url(#mask0_2379_5198)">
<rect width="12" height="12" fill="white" fill-opacity="0.4"/>
</g>
</svg>
