<svg width="16" height="16" viewBox="0 0 16 16" fill="none" xmlns="http://www.w3.org/2000/svg">
<path fill-rule="evenodd" clip-rule="evenodd" d="M10.6673 8.66671H8.00065C7.63265 8.66671 7.33398 8.36871 7.33398 8.00004V5.33337C7.33398 4.96471 7.63265 4.66671 8.00065 4.66671C8.36865 4.66671 8.66732 4.96471 8.66732 5.33337V7.33337H10.6673C11.036 7.33337 11.334 7.63137 11.334 8.00004C11.334 8.36871 11.036 8.66671 10.6673 8.66671ZM8.00065 1.33337C4.32465 1.33337 1.33398 4.32404 1.33398 8.00004C1.33398 11.676 4.32465 14.6667 8.00065 14.6667C11.6767 14.6667 14.6673 11.676 14.6673 8.00004C14.6673 4.32404 11.6767 1.33337 8.00065 1.33337Z" fill="white"/>
<mask id="mask0_2379_5205" style="mask-type:luminance" maskUnits="userSpaceOnUse" x="1" y="1" width="14" height="14">
<path fill-rule="evenodd" clip-rule="evenodd" d="M10.6673 8.66671H8.00065C7.63265 8.66671 7.33398 8.36871 7.33398 8.00004V5.33337C7.33398 4.96471 7.63265 4.66671 8.00065 4.66671C8.36865 4.66671 8.66732 4.96471 8.66732 5.33337V7.33337H10.6673C11.036 7.33337 11.334 7.63137 11.334 8.00004C11.334 8.36871 11.036 8.66671 10.6673 8.66671ZM8.00065 1.33337C4.32465 1.33337 1.33398 4.32404 1.33398 8.00004C1.33398 11.676 4.32465 14.6667 8.00065 14.6667C11.6767 14.6667 14.6673 11.676 14.6673 8.00004C14.6673 4.32404 11.6767 1.33337 8.00065 1.33337Z" fill="white"/>
</mask>
<g mask="url(#mask0_2379_5205)">
<rect width="16" height="16" fill="white"/>
</g>
</svg>
