<svg width="20" height="20" viewBox="0 0 20 20" fill="none" xmlns="http://www.w3.org/2000/svg">
<path fill-rule="evenodd" clip-rule="evenodd" d="M14.9722 5.60725L12.7272 3.36225L11.1039 4.98642L13.3497 7.23225L14.9722 5.60725ZM4.24304 14.9964C4.21804 14.9989 4.19304 14.9997 4.16804 14.9997C3.94804 14.9997 3.73554 14.9131 3.57804 14.7556C3.40388 14.5806 3.31554 14.3372 3.33721 14.0914L3.65304 10.6164C3.68804 10.2356 3.85638 9.87558 4.12804 9.60475L11.6247 2.10808C12.2097 1.52058 13.2705 1.54975 13.888 2.16558L16.1697 4.44725L16.1705 4.44808C16.808 5.08642 16.8339 6.10142 16.2272 6.70975L8.72971 14.2072C8.45888 14.4781 8.09971 14.6464 7.71804 14.6814L4.24304 14.9964ZM4.16763 16.6667H15.8343C16.2926 16.6667 16.6676 17.0417 16.6676 17.5C16.6676 17.9583 16.2926 18.3333 15.8343 18.3333H4.16763C3.70929 18.3333 3.33429 17.9583 3.33429 17.5C3.33429 17.0417 3.70929 16.6667 4.16763 16.6667Z" fill="white"/>
<mask id="mask0_2379_5102" style="mask-type:luminance" maskUnits="userSpaceOnUse" x="3" y="1" width="14" height="18">
<path fill-rule="evenodd" clip-rule="evenodd" d="M14.9722 5.60725L12.7272 3.36225L11.1039 4.98642L13.3497 7.23225L14.9722 5.60725ZM4.24304 14.9964C4.21804 14.9989 4.19304 14.9997 4.16804 14.9997C3.94804 14.9997 3.73554 14.9131 3.57804 14.7556C3.40388 14.5806 3.31554 14.3372 3.33721 14.0914L3.65304 10.6164C3.68804 10.2356 3.85638 9.87558 4.12804 9.60475L11.6247 2.10808C12.2097 1.52058 13.2705 1.54975 13.888 2.16558L16.1697 4.44725L16.1705 4.44808C16.808 5.08642 16.8339 6.10142 16.2272 6.70975L8.72971 14.2072C8.45888 14.4781 8.09971 14.6464 7.71804 14.6814L4.24304 14.9964ZM4.16763 16.6667H15.8343C16.2926 16.6667 16.6676 17.0417 16.6676 17.5C16.6676 17.9583 16.2926 18.3333 15.8343 18.3333H4.16763C3.70929 18.3333 3.33429 17.9583 3.33429 17.5C3.33429 17.0417 3.70929 16.6667 4.16763 16.6667Z" fill="white"/>
</mask>
<g mask="url(#mask0_2379_5102)">
<rect width="20" height="20" fill="white"/>
</g>
</svg>
