<svg width="20" height="20" viewBox="0 0 20 20" fill="none" xmlns="http://www.w3.org/2000/svg">
<path fill-rule="evenodd" clip-rule="evenodd" d="M2.5 4.375C2.5 3.34 3.34 2.5 4.375 2.5C5.41 2.5 6.25 3.34 6.25 4.375C6.25 5.41 5.41 6.25 4.375 6.25C3.34 6.25 2.5 5.41 2.5 4.375ZM12.6257 7.00034C9.93319 7.00034 7.74985 9.17034 7.74985 11.8453V16.7495C7.74985 17.1637 8.08652 17.5003 8.50069 17.5003H10.2499C10.664 17.5003 11.0007 17.1637 11.0007 16.7495V11.8453C11.0007 10.8987 11.8207 10.142 12.794 10.2395C13.639 10.3237 14.2499 11.0962 14.2499 11.9453V16.7495C14.2499 17.1637 14.5865 17.5003 15.0007 17.5003H16.7499C17.164 17.5003 17.5007 17.1637 17.5007 16.7495V11.8453C17.5007 9.17034 15.3174 7.00034 12.6257 7.00034ZM5.50006 7.74983H3.25089C2.83673 7.74983 2.50006 8.08566 2.50006 8.49983V16.7498C2.50006 17.164 2.83673 17.4998 3.25089 17.4998H5.50006C5.91423 17.4998 6.25006 17.164 6.25006 16.7498V8.49983C6.25006 8.08566 5.91423 7.74983 5.50006 7.74983Z" fill="#121212" fill-opacity="0.4"/>
<mask id="mask0_2379_5142" style="mask-type:luminance" maskUnits="userSpaceOnUse" x="2" y="2" width="16" height="16">
<path fill-rule="evenodd" clip-rule="evenodd" d="M2.5 4.375C2.5 3.34 3.34 2.5 4.375 2.5C5.41 2.5 6.25 3.34 6.25 4.375C6.25 5.41 5.41 6.25 4.375 6.25C3.34 6.25 2.5 5.41 2.5 4.375ZM12.6257 7.00034C9.93319 7.00034 7.74985 9.17034 7.74985 11.8453V16.7495C7.74985 17.1637 8.08652 17.5003 8.50069 17.5003H10.2499C10.664 17.5003 11.0007 17.1637 11.0007 16.7495V11.8453C11.0007 10.8987 11.8207 10.142 12.794 10.2395C13.639 10.3237 14.2499 11.0962 14.2499 11.9453V16.7495C14.2499 17.1637 14.5865 17.5003 15.0007 17.5003H16.7499C17.164 17.5003 17.5007 17.1637 17.5007 16.7495V11.8453C17.5007 9.17034 15.3174 7.00034 12.6257 7.00034ZM5.50006 7.74983H3.25089C2.83673 7.74983 2.50006 8.08566 2.50006 8.49983V16.7498C2.50006 17.164 2.83673 17.4998 3.25089 17.4998H5.50006C5.91423 17.4998 6.25006 17.164 6.25006 16.7498V8.49983C6.25006 8.08566 5.91423 7.74983 5.50006 7.74983Z" fill="white"/>
</mask>
<g mask="url(#mask0_2379_5142)">
<rect width="20" height="20" fill="white"/>
</g>
</svg>
