<svg width="20" height="20" viewBox="0 0 20 20" fill="none" xmlns="http://www.w3.org/2000/svg">
<path fill-rule="evenodd" clip-rule="evenodd" d="M15.8385 5.00004L10.4177 8.72337C10.1619 8.86921 9.84854 8.86921 9.59271 8.72337L4.17187 5.00004H15.8385ZM15.8385 3.33337H4.17188C2.79354 3.33337 1.67188 4.45504 1.67188 5.83337V14.1667C1.67188 15.545 2.79354 16.6667 4.17188 16.6667H15.8385C17.2169 16.6667 18.3385 15.545 18.3385 14.1667V5.83337C18.3385 4.45504 17.2169 3.33337 15.8385 3.33337Z" fill="#0094FF"/>
<mask id="mask0_2379_5201" style="mask-type:luminance" maskUnits="userSpaceOnUse" x="1" y="3" width="18" height="14">
<path fill-rule="evenodd" clip-rule="evenodd" d="M15.8385 5.00004L10.4177 8.72337C10.1619 8.86921 9.84854 8.86921 9.59271 8.72337L4.17187 5.00004H15.8385ZM15.8385 3.33337H4.17188C2.79354 3.33337 1.67188 4.45504 1.67188 5.83337V14.1667C1.67188 15.545 2.79354 16.6667 4.17188 16.6667H15.8385C17.2169 16.6667 18.3385 15.545 18.3385 14.1667V5.83337C18.3385 4.45504 17.2169 3.33337 15.8385 3.33337Z" fill="white"/>
</mask>
<g mask="url(#mask0_2379_5201)">
<rect width="20" height="20" fill="#0094FF"/>
</g>
</svg>
