<svg width="20" height="20" viewBox="0 0 20 20" fill="none" xmlns="http://www.w3.org/2000/svg">
<path fill-rule="evenodd" clip-rule="evenodd" d="M10.0007 5.83333C10.9207 5.83333 11.6673 5.08667 11.6673 4.16667C11.6673 3.24667 10.9207 2.5 10.0007 2.5C9.08065 2.5 8.33398 3.24667 8.33398 4.16667C8.33398 5.08667 9.08065 5.83333 10.0007 5.83333ZM10.0007 8.33333C9.08065 8.33333 8.33398 9.08 8.33398 10C8.33398 10.92 9.08065 11.6667 10.0007 11.6667C10.9207 11.6667 11.6673 10.92 11.6673 10C11.6673 9.08 10.9207 8.33333 10.0007 8.33333ZM8.33398 15.8333C8.33398 14.9133 9.08065 14.1667 10.0007 14.1667C10.9207 14.1667 11.6673 14.9133 11.6673 15.8333C11.6673 16.7533 10.9207 17.5 10.0007 17.5C9.08065 17.5 8.33398 16.7533 8.33398 15.8333Z" fill="white"/>
<mask id="mask0_2379_5108" style="mask-type:luminance" maskUnits="userSpaceOnUse" x="8" y="2" width="4" height="16">
<path fill-rule="evenodd" clip-rule="evenodd" d="M10.0007 5.83333C10.9207 5.83333 11.6673 5.08667 11.6673 4.16667C11.6673 3.24667 10.9207 2.5 10.0007 2.5C9.08065 2.5 8.33398 3.24667 8.33398 4.16667C8.33398 5.08667 9.08065 5.83333 10.0007 5.83333ZM10.0007 8.33333C9.08065 8.33333 8.33398 9.08 8.33398 10C8.33398 10.92 9.08065 11.6667 10.0007 11.6667C10.9207 11.6667 11.6673 10.92 11.6673 10C11.6673 9.08 10.9207 8.33333 10.0007 8.33333ZM8.33398 15.8333C8.33398 14.9133 9.08065 14.1667 10.0007 14.1667C10.9207 14.1667 11.6673 14.9133 11.6673 15.8333C11.6673 16.7533 10.9207 17.5 10.0007 17.5C9.08065 17.5 8.33398 16.7533 8.33398 15.8333Z" fill="white"/>
</mask>
<g mask="url(#mask0_2379_5108)">
</g>
</svg>
