<svg width="16" height="16" viewBox="0 0 16 16" fill="none" xmlns="http://www.w3.org/2000/svg">
<path d="M2.94386 1C2.84165 0.99978 2.7404 1.01975 2.64593 1.05876C2.55146 1.09777 2.46562 1.15506 2.39335 1.22733C2.32107 1.2996 2.26379 1.38545 2.22478 1.47992C2.18576 1.57439 2.1658 1.67563 2.16602 1.77784V14.2221C2.16602 14.6111 2.55484 15 2.94386 15H6.83268V12.6667C6.83268 12.2358 7.2439 11.8888 7.61052 11.8888H8.38817C8.75478 11.8888 9.16601 12.2358 9.16601 12.6667V15H13.0548C13.4438 15 13.8327 14.6111 13.8327 14.2221V1.77803C13.8329 1.67582 13.8129 1.57457 13.7739 1.4801C13.7349 1.38563 13.6776 1.29979 13.6053 1.22751C13.5331 1.15524 13.4472 1.09796 13.3528 1.05895C13.2583 1.01994 13.157 0.999963 13.0548 1.00018L2.94386 1ZM4.49935 3.33333H6.83268V4.88882H4.49935V3.33333ZM9.16601 3.33333H11.4993V4.88882H9.16601V3.33333ZM4.49935 7.99999H6.83268V9.55548H4.49935V7.99999ZM9.16601 7.99999H11.4993V9.55548H9.16601V7.99999Z" fill="white" fill-opacity="0.7"/>
</svg>
