<svg width="11" height="11" viewBox="0 0 11 11" fill="none" xmlns="http://www.w3.org/2000/svg">
<path fill-rule="evenodd" clip-rule="evenodd" d="M7.81789 9.25033C7.75206 9.25033 7.68581 9.23492 7.62498 9.20325L5.50039 8.09325L3.37623 9.20325C3.23539 9.27617 3.06539 9.26367 2.93789 9.17033C2.80956 9.077 2.74581 8.91908 2.77289 8.76283L3.17748 6.41783L1.46081 4.75742C1.34664 4.647 1.30539 4.48117 1.35414 4.3295C1.40289 4.17867 1.53331 4.06825 1.69081 4.04575L4.06581 3.70075L5.12748 1.56492C5.26831 1.28158 5.73289 1.28158 5.87373 1.56492L6.93539 3.70075L9.31039 4.04575C9.46789 4.06825 9.59831 4.17867 9.64706 4.3295C9.69581 4.48117 9.65456 4.647 9.54039 4.75742L7.82373 6.41783L8.22831 8.76283C8.25539 8.91908 8.19123 9.077 8.06331 9.17033C7.99081 9.22367 7.90456 9.25033 7.81789 9.25033Z" fill="white"/>
<mask id="mask0_2379_5151" style="mask-type:luminance" maskUnits="userSpaceOnUse" x="1" y="1" width="9" height="9">
<path fill-rule="evenodd" clip-rule="evenodd" d="M7.81789 9.25033C7.75206 9.25033 7.68581 9.23492 7.62498 9.20325L5.50039 8.09325L3.37623 9.20325C3.23539 9.27617 3.06539 9.26367 2.93789 9.17033C2.80956 9.077 2.74581 8.91908 2.77289 8.76283L3.17748 6.41783L1.46081 4.75742C1.34664 4.647 1.30539 4.48117 1.35414 4.3295C1.40289 4.17867 1.53331 4.06825 1.69081 4.04575L4.06581 3.70075L5.12748 1.56492C5.26831 1.28158 5.73289 1.28158 5.87373 1.56492L6.93539 3.70075L9.31039 4.04575C9.46789 4.06825 9.59831 4.17867 9.64706 4.3295C9.69581 4.48117 9.65456 4.647 9.54039 4.75742L7.82373 6.41783L8.22831 8.76283C8.25539 8.91908 8.19123 9.077 8.06331 9.17033C7.99081 9.22367 7.90456 9.25033 7.81789 9.25033Z" fill="white"/>
</mask>
<g mask="url(#mask0_2379_5151)">
<rect x="0.5" y="0.5" width="10" height="10" fill="white"/>
</g>
</svg>
