<svg width="16" height="16" viewBox="0 0 16 16" fill="none" xmlns="http://www.w3.org/2000/svg">
<path fill-rule="evenodd" clip-rule="evenodd" d="M10.6673 4.66667C10.6673 6.13733 9.47132 7.33333 8.00065 7.33333C6.52998 7.33333 5.33398 6.13733 5.33398 4.66667C5.33398 3.196 6.52998 2 8.00065 2C9.47132 2 10.6673 3.196 10.6673 4.66667ZM12.6673 13.3333C12.6673 13.7013 12.3693 14 12.0007 14H4.00065C3.63198 14 3.33398 13.7013 3.33398 13.3333C3.33398 10.76 5.42798 8.66667 8.00065 8.66667C10.5733 8.66667 12.6673 10.76 12.6673 13.3333Z" fill="white" fill-opacity="0.4"/>
<mask id="mask0_2379_5161" style="mask-type:luminance" maskUnits="userSpaceOnUse" x="3" y="2" width="10" height="12">
<path fill-rule="evenodd" clip-rule="evenodd" d="M10.6673 4.66667C10.6673 6.13733 9.47132 7.33333 8.00065 7.33333C6.52998 7.33333 5.33398 6.13733 5.33398 4.66667C5.33398 3.196 6.52998 2 8.00065 2C9.47132 2 10.6673 3.196 10.6673 4.66667ZM12.6673 13.3333C12.6673 13.7013 12.3693 14 12.0007 14H4.00065C3.63198 14 3.33398 13.7013 3.33398 13.3333C3.33398 10.76 5.42798 8.66667 8.00065 8.66667C10.5733 8.66667 12.6673 10.76 12.6673 13.3333Z" fill="white"/>
</mask>
<g mask="url(#mask0_2379_5161)">
<rect width="16" height="16" fill="white" fill-opacity="0.4"/>
</g>
</svg>
