<svg width="20" height="20" viewBox="0 0 20 20" fill="none" xmlns="http://www.w3.org/2000/svg">
<mask id="mask0_2379_5193" style="mask-type:luminance" maskUnits="userSpaceOnUse" x="0" y="0" width="20" height="20">
<path d="M20 0H0V20H20V0Z" fill="white"/>
</mask>
<g mask="url(#mask0_2379_5193)">
<path d="M10.0025 0H9.99751C4.48376 0 1.31211e-05 4.485 1.31211e-05 10C-0.00341075 12.1063 0.663324 14.159 1.90376 15.8612L0.657514 19.5763L4.50126 18.3475C6.13173 19.4293 8.04586 20.0042 10.0025 20C15.5163 20 20 15.5138 20 10C20 4.48625 15.5163 0 10.0025 0ZM15.8212 14.1213C15.58 14.8025 14.6225 15.3675 13.8587 15.5325C13.3363 15.6437 12.6538 15.7325 10.3563 14.78C7.41751 13.5625 5.52501 10.5763 5.37751 10.3825C5.23626 10.1887 4.19001 8.80125 4.19001 7.36625C4.19001 5.93125 4.91876 5.2325 5.21251 4.9325C5.45376 4.68625 5.85251 4.57375 6.23501 4.57375C6.35876 4.57375 6.47001 4.58 6.57001 4.585C6.86376 4.5975 7.01126 4.615 7.20501 5.07875C7.44626 5.66 8.03376 7.095 8.10376 7.2425C8.17501 7.39 8.24626 7.59 8.14626 7.78375C8.05251 7.98375 7.97001 8.0725 7.82251 8.2425C7.67501 8.4125 7.53501 8.5425 7.38751 8.725C7.25251 8.88375 7.10001 9.05375 7.27001 9.3475C7.44001 9.635 8.02751 10.5937 8.89251 11.3637C10.0088 12.3575 10.9138 12.675 11.2375 12.81C11.4788 12.91 11.7663 12.8863 11.9425 12.6988C12.1663 12.4575 12.4425 12.0575 12.7238 11.6638C12.9237 11.3813 13.1763 11.3462 13.4412 11.4462C13.7113 11.54 15.14 12.2462 15.4338 12.3925C15.7275 12.54 15.9212 12.61 15.9925 12.7338C16.0625 12.8575 16.0625 13.4388 15.8212 14.1213Z" fill="#0DC143"/>
</g>
</svg>
