<svg width="24" height="24" viewBox="0 0 24 24" fill="none" xmlns="http://www.w3.org/2000/svg">
<path fill-rule="evenodd" clip-rule="evenodd" d="M17.9932 7.0488C17.9932 6.4998 17.5492 6.0528 16.9992 6.0498L9.00622 5.9998H9.00022C8.45022 5.9998 8.00422 6.4438 8.00022 6.9938C7.99622 7.5458 8.44122 7.9968 8.99422 7.9998L14.5522 8.0348L6.29322 16.2928C5.90222 16.6838 5.90222 17.3168 6.29322 17.7068C6.48822 17.9028 6.74422 17.9998 7.00022 17.9998C7.25622 17.9998 7.51222 17.9028 7.70722 17.7068L15.9952 9.4188L16.0002 15.0008C16.0002 15.5528 16.4482 15.9998 17.0002 15.9998H17.0012C17.5532 15.9998 18.0002 15.5508 18.0002 14.9988L17.9932 7.0488Z" fill="#1A1A1A"/>
<mask id="mask0_2063_361" style="mask-type:luminance" maskUnits="userSpaceOnUse" x="6" y="5" width="13" height="13">
<path fill-rule="evenodd" clip-rule="evenodd" d="M17.9932 7.0488C17.9932 6.4998 17.5492 6.0528 16.9992 6.0498L9.00622 5.9998H9.00022C8.45022 5.9998 8.00422 6.4438 8.00022 6.9938C7.99622 7.5458 8.44122 7.9968 8.99422 7.9998L14.5522 8.0348L6.29322 16.2928C5.90222 16.6838 5.90222 17.3168 6.29322 17.7068C6.48822 17.9028 6.74422 17.9998 7.00022 17.9998C7.25622 17.9998 7.51222 17.9028 7.70722 17.7068L15.9952 9.4188L16.0002 15.0008C16.0002 15.5528 16.4482 15.9998 17.0002 15.9998H17.0012C17.5532 15.9998 18.0002 15.5508 18.0002 14.9988L17.9932 7.0488Z" fill="white"/>
</mask>
<g mask="url(#mask0_2063_361)">
<rect width="24" height="24" fill="#1A1A1A"/>
</g>
</svg>
