<svg width="21" height="20" viewBox="0 0 21 20" fill="none" xmlns="http://www.w3.org/2000/svg">
<path fill-rule="evenodd" clip-rule="evenodd" d="M12.1666 15.2844C12.1666 16.0336 11.4033 16.6669 10.5 16.6669C9.59664 16.6669 8.83331 16.0336 8.83331 15.2844V15.0002H12.1666V15.2844ZM17.6008 12.6727L16.1 11.1702V7.4469C16.1 4.54607 14.015 2.08274 11.2491 1.71607C9.64831 1.50357 8.03164 1.9919 6.81914 3.05524C5.59914 4.12357 4.89997 5.66107 4.89997 7.27274L4.89914 11.1702L3.39914 12.6736C3.00831 13.0644 2.89247 13.6477 3.10414 14.1586C3.31664 14.6694 3.81081 15.0002 4.36414 15.0002H7.16664V15.2844C7.16664 16.9661 8.66164 18.3336 10.5 18.3336C12.3383 18.3336 13.8333 16.9661 13.8333 15.2844V15.0002H16.635C17.1883 15.0002 17.6825 14.6702 17.8941 14.1586C18.1066 13.6477 17.9908 13.0644 17.6008 12.6727Z" fill="white"/>
<mask id="mask0_1_362" style="mask-type:luminance" maskUnits="userSpaceOnUse" x="2" y="1" width="16" height="18">
<path fill-rule="evenodd" clip-rule="evenodd" d="M12.1666 15.2844C12.1666 16.0336 11.4033 16.6669 10.5 16.6669C9.59664 16.6669 8.83331 16.0336 8.83331 15.2844V15.0002H12.1666V15.2844ZM17.6008 12.6727L16.1 11.1702V7.4469C16.1 4.54607 14.015 2.08274 11.2491 1.71607C9.64831 1.50357 8.03164 1.9919 6.81914 3.05524C5.59914 4.12357 4.89997 5.66107 4.89997 7.27274L4.89914 11.1702L3.39914 12.6736C3.00831 13.0644 2.89247 13.6477 3.10414 14.1586C3.31664 14.6694 3.81081 15.0002 4.36414 15.0002H7.16664V15.2844C7.16664 16.9661 8.66164 18.3336 10.5 18.3336C12.3383 18.3336 13.8333 16.9661 13.8333 15.2844V15.0002H16.635C17.1883 15.0002 17.6825 14.6702 17.8941 14.1586C18.1066 13.6477 17.9908 13.0644 17.6008 12.6727Z" fill="white"/>
</mask>
<g mask="url(#mask0_1_362)">
<rect x="0.5" width="20" height="20" fill="white"/>
</g>
</svg>

