<svg width="12" height="12" viewBox="0 0 12 12" fill="none" xmlns="http://www.w3.org/2000/svg">
<path fill-rule="evenodd" clip-rule="evenodd" d="M8.00001 7.24996C7.87201 7.24996 7.74401 7.20096 7.64651 7.10346L5.99401 5.45096L4.34751 7.04096C4.14851 7.23296 3.83251 7.22796 3.64051 7.02846C3.44851 6.82996 3.45401 6.51296 3.65251 6.32146L5.65251 4.39046C5.84901 4.20096 6.16101 4.20346 6.35351 4.39646L8.35351 6.39646C8.54901 6.59196 8.54901 6.90796 8.35351 7.10346C8.25601 7.20096 8.12801 7.24996 8.00001 7.24996Z" fill="black" fill-opacity="0.6"/>
<mask id="mask0_2449_6207" style="mask-type:luminance" maskUnits="userSpaceOnUse" x="3" y="4" width="6" height="4">
<path fill-rule="evenodd" clip-rule="evenodd" d="M8.00001 7.24996C7.87201 7.24996 7.74401 7.20096 7.64651 7.10346L5.99401 5.45096L4.34751 7.04096C4.14851 7.23296 3.83251 7.22796 3.64051 7.02846C3.44851 6.82996 3.45401 6.51296 3.65251 6.32146L5.65251 4.39046C5.84901 4.20096 6.16101 4.20346 6.35351 4.39646L8.35351 6.39646C8.54901 6.59196 8.54901 6.90796 8.35351 7.10346C8.25601 7.20096 8.12801 7.24996 8.00001 7.24996Z" fill="white"/>
</mask>
<g mask="url(#mask0_2449_6207)">
<rect width="12" height="12" fill="black" fill-opacity="0.6"/>
</g>
</svg>
