<svg width="12" height="12" viewBox="0 0 12 12" fill="none" xmlns="http://www.w3.org/2000/svg">
<path fill-rule="evenodd" clip-rule="evenodd" d="M8 6.5H6C5.724 6.5 5.5 6.2765 5.5 6V4C5.5 3.7235 5.724 3.5 6 3.5C6.276 3.5 6.5 3.7235 6.5 4V5.5H8C8.2765 5.5 8.5 5.7235 8.5 6C8.5 6.2765 8.2765 6.5 8 6.5ZM6 1C3.243 1 1 3.243 1 6C1 8.757 3.243 11 6 11C8.757 11 11 8.757 11 6C11 3.243 8.757 1 6 1Z" fill="white"/>
<mask id="mask0_1_671" style="mask-type:luminance" maskUnits="userSpaceOnUse" x="1" y="1" width="10" height="10">
<path fill-rule="evenodd" clip-rule="evenodd" d="M8 6.5H6C5.724 6.5 5.5 6.2765 5.5 6V4C5.5 3.7235 5.724 3.5 6 3.5C6.276 3.5 6.5 3.7235 6.5 4V5.5H8C8.2765 5.5 8.5 5.7235 8.5 6C8.5 6.2765 8.2765 6.5 8 6.5ZM6 1C3.243 1 1 3.243 1 6C1 8.757 3.243 11 6 11C8.757 11 11 8.757 11 6C11 3.243 8.757 1 6 1Z" fill="white"/>
</mask>
<g mask="url(#mask0_1_671)">
<rect width="12" height="12" fill="white"/>
</g>
</svg>
