<svg width="16" height="17" viewBox="0 0 16 17" fill="none" xmlns="http://www.w3.org/2000/svg">
<path fill-rule="evenodd" clip-rule="evenodd" d="M9.81195 5.82873C9.54928 5.82873 9.33595 5.57473 9.33595 5.26206V3.14739L11.8306 5.82873H9.81195ZM10.0026 12.4974H6.00261C5.63461 12.4974 5.33595 12.1987 5.33595 11.8307C5.33595 11.4627 5.63461 11.1641 6.00261 11.1641H10.0026C10.3713 11.1641 10.6693 11.4627 10.6693 11.8307C10.6693 12.1987 10.3713 12.4974 10.0026 12.4974ZM6.00261 8.49739H8.00261C8.37061 8.49739 8.66928 8.79606 8.66928 9.16406C8.66928 9.53206 8.37061 9.83073 8.00261 9.83073H6.00261C5.63461 9.83073 5.33595 9.53206 5.33595 9.16406C5.33595 8.79606 5.63461 8.49739 6.00261 8.49739ZM13.1626 5.38273L10.1999 2.04939C10.0739 1.91006 9.89461 1.83073 9.70661 1.83073H4.37328C3.43395 1.83073 2.66928 2.57873 2.66928 3.49739V13.4974C2.66928 14.4161 3.43395 15.1641 4.37328 15.1641H11.6319C12.5719 15.1641 13.3359 14.4161 13.3359 13.4974V5.83073C13.3359 5.66473 13.2739 5.50539 13.1626 5.38273Z" fill="black"/>
<mask id="mask0_2063_267" style="mask-type:luminance" maskUnits="userSpaceOnUse" x="2" y="1" width="12" height="15">
<path fill-rule="evenodd" clip-rule="evenodd" d="M9.81195 5.82873C9.54928 5.82873 9.33595 5.57473 9.33595 5.26206V3.14739L11.8306 5.82873H9.81195ZM10.0026 12.4974H6.00261C5.63461 12.4974 5.33595 12.1987 5.33595 11.8307C5.33595 11.4627 5.63461 11.1641 6.00261 11.1641H10.0026C10.3713 11.1641 10.6693 11.4627 10.6693 11.8307C10.6693 12.1987 10.3713 12.4974 10.0026 12.4974ZM6.00261 8.49739H8.00261C8.37061 8.49739 8.66928 8.79606 8.66928 9.16406C8.66928 9.53206 8.37061 9.83073 8.00261 9.83073H6.00261C5.63461 9.83073 5.33595 9.53206 5.33595 9.16406C5.33595 8.79606 5.63461 8.49739 6.00261 8.49739ZM13.1626 5.38273L10.1999 2.04939C10.0739 1.91006 9.89461 1.83073 9.70661 1.83073H4.37328C3.43395 1.83073 2.66928 2.57873 2.66928 3.49739V13.4974C2.66928 14.4161 3.43395 15.1641 4.37328 15.1641H11.6319C12.5719 15.1641 13.3359 14.4161 13.3359 13.4974V5.83073C13.3359 5.66473 13.2739 5.50539 13.1626 5.38273Z" fill="white"/>
</mask>
<g mask="url(#mask0_2063_267)">
<rect y="0.5" width="16" height="16" fill="black"/>
</g>
</svg>
