<svg width="17" height="17" viewBox="0 0 17 17" fill="none" xmlns="http://www.w3.org/2000/svg">
<path fill-rule="evenodd" clip-rule="evenodd" d="M6.49739 7.83333C7.96805 7.83333 9.16405 6.63733 9.16405 5.16667C9.16405 3.696 7.96805 2.5 6.49739 2.5C5.02672 2.5 3.83072 3.696 3.83072 5.16667C3.83072 6.63733 5.02672 7.83333 6.49739 7.83333ZM11.8307 9.16667C12.9334 9.16667 13.8307 8.26933 13.8307 7.16667C13.8307 6.064 12.9334 5.16667 11.8307 5.16667C10.7281 5.16667 9.83072 6.064 9.83072 7.16667C9.83072 8.26933 10.7281 9.16667 11.8307 9.16667ZM15.1641 13.1667C15.1641 13.5347 14.8661 13.8333 14.4974 13.8333H11.1641C11.1641 14.2013 10.8661 14.5 10.4974 14.5H2.49739C2.12872 14.5 1.83072 14.2013 1.83072 13.8333C1.83072 11.26 3.92472 9.16667 6.49739 9.16667C7.78205 9.16667 8.94605 9.68867 9.79072 10.5307C10.3701 10.0827 11.0834 9.83333 11.8307 9.83333C13.6687 9.83333 15.1641 11.3287 15.1641 13.1667Z" fill="black"/>
<mask id="mask0_2095_472" style="mask-type:luminance" maskUnits="userSpaceOnUse" x="1" y="2" width="15" height="13">
<path fill-rule="evenodd" clip-rule="evenodd" d="M6.49739 7.83333C7.96805 7.83333 9.16405 6.63733 9.16405 5.16667C9.16405 3.696 7.96805 2.5 6.49739 2.5C5.02672 2.5 3.83072 3.696 3.83072 5.16667C3.83072 6.63733 5.02672 7.83333 6.49739 7.83333ZM11.8307 9.16667C12.9334 9.16667 13.8307 8.26933 13.8307 7.16667C13.8307 6.064 12.9334 5.16667 11.8307 5.16667C10.7281 5.16667 9.83072 6.064 9.83072 7.16667C9.83072 8.26933 10.7281 9.16667 11.8307 9.16667ZM15.1641 13.1667C15.1641 13.5347 14.8661 13.8333 14.4974 13.8333H11.1641C11.1641 14.2013 10.8661 14.5 10.4974 14.5H2.49739C2.12872 14.5 1.83072 14.2013 1.83072 13.8333C1.83072 11.26 3.92472 9.16667 6.49739 9.16667C7.78205 9.16667 8.94605 9.68867 9.79072 10.5307C10.3701 10.0827 11.0834 9.83333 11.8307 9.83333C13.6687 9.83333 15.1641 11.3287 15.1641 13.1667Z" fill="white"/>
</mask>
<g mask="url(#mask0_2095_472)">
<rect x="0.5" y="0.5" width="16" height="16" fill="black"/>
</g>
</svg>
