<svg width="21" height="20" viewBox="0 0 21 20" fill="none" xmlns="http://www.w3.org/2000/svg">
<path fill-rule="evenodd" clip-rule="evenodd" d="M4.66667 9.16667C4.66667 6.40917 6.90917 4.16667 9.66667 4.16667C12.4242 4.16667 14.6667 6.40917 14.6667 9.16667C14.6667 11.9242 12.4242 14.1667 9.66667 14.1667C6.90917 14.1667 4.66667 11.9242 4.66667 9.16667ZM17.7558 16.0775L14.9267 13.2475C15.8042 12.1192 16.3333 10.705 16.3333 9.16667C16.3333 5.49083 13.3425 2.5 9.66667 2.5C5.99083 2.5 3 5.49083 3 9.16667C3 12.8425 5.99083 15.8333 9.66667 15.8333C11.205 15.8333 12.6192 15.3042 13.7475 14.4267L16.5775 17.2558C16.74 17.4183 16.9533 17.5 17.1667 17.5C17.38 17.5 17.5933 17.4183 17.7558 17.2558C18.0817 16.93 18.0817 16.4033 17.7558 16.0775Z" fill="white"/>
<mask id="mask0_1_365" style="mask-type:luminance" maskUnits="userSpaceOnUse" x="3" y="2" width="16" height="16">
<path fill-rule="evenodd" clip-rule="evenodd" d="M4.66667 9.16667C4.66667 6.40917 6.90917 4.16667 9.66667 4.16667C12.4242 4.16667 14.6667 6.40917 14.6667 9.16667C14.6667 11.9242 12.4242 14.1667 9.66667 14.1667C6.90917 14.1667 4.66667 11.9242 4.66667 9.16667ZM17.7558 16.0775L14.9267 13.2475C15.8042 12.1192 16.3333 10.705 16.3333 9.16667C16.3333 5.49083 13.3425 2.5 9.66667 2.5C5.99083 2.5 3 5.49083 3 9.16667C3 12.8425 5.99083 15.8333 9.66667 15.8333C11.205 15.8333 12.6192 15.3042 13.7475 14.4267L16.5775 17.2558C16.74 17.4183 16.9533 17.5 17.1667 17.5C17.38 17.5 17.5933 17.4183 17.7558 17.2558C18.0817 16.93 18.0817 16.4033 17.7558 16.0775Z" fill="white"/>
</mask>
<g mask="url(#mask0_1_365)">
<rect x="0.5" width="20" height="20" fill="white"/>
</g>
</svg>
