<svg width="10" height="10" viewBox="0 0 10 10" fill="none" xmlns="http://www.w3.org/2000/svg">
<path fill-rule="evenodd" clip-rule="evenodd" d="M7.31692 8.75033C7.25108 8.75033 7.18483 8.73492 7.124 8.70325L4.99942 7.59325L2.87525 8.70325C2.73442 8.77617 2.56442 8.76367 2.43692 8.67033C2.30858 8.577 2.24483 8.41908 2.27192 8.26283L2.6765 5.91783L0.959832 4.25742C0.845666 4.147 0.804416 3.98117 0.853166 3.8295C0.901916 3.67867 1.03233 3.56825 1.18983 3.54575L3.56483 3.20075L4.6265 1.06492C4.76733 0.781584 5.23192 0.781584 5.37275 1.06492L6.43442 3.20075L8.80942 3.54575C8.96692 3.56825 9.09733 3.67867 9.14608 3.8295C9.19483 3.98117 9.15358 4.147 9.03942 4.25742L7.32275 5.91783L7.72733 8.26283C7.75442 8.41908 7.69025 8.577 7.56233 8.67033C7.48983 8.72367 7.40358 8.75033 7.31692 8.75033Z" fill="white"/>
<mask id="mask0_2449_592" style="mask-type:luminance" maskUnits="userSpaceOnUse" x="0" y="0" width="10" height="9">
<path fill-rule="evenodd" clip-rule="evenodd" d="M7.31692 8.75033C7.25108 8.75033 7.18483 8.73492 7.124 8.70325L4.99942 7.59325L2.87525 8.70325C2.73442 8.77617 2.56442 8.76367 2.43692 8.67033C2.30858 8.577 2.24483 8.41908 2.27192 8.26283L2.6765 5.91783L0.959832 4.25742C0.845666 4.147 0.804416 3.98117 0.853166 3.8295C0.901916 3.67867 1.03233 3.56825 1.18983 3.54575L3.56483 3.20075L4.6265 1.06492C4.76733 0.781584 5.23192 0.781584 5.37275 1.06492L6.43442 3.20075L8.80942 3.54575C8.96692 3.56825 9.09733 3.67867 9.14608 3.8295C9.19483 3.98117 9.15358 4.147 9.03942 4.25742L7.32275 5.91783L7.72733 8.26283C7.75442 8.41908 7.69025 8.577 7.56233 8.67033C7.48983 8.72367 7.40358 8.75033 7.31692 8.75033Z" fill="white"/>
</mask>
<g mask="url(#mask0_2449_592)">
<rect width="10" height="10" fill="white"/>
</g>
</svg>
