<svg width="16" height="17" viewBox="0 0 16 17" fill="none" xmlns="http://www.w3.org/2000/svg">
<path fill-rule="evenodd" clip-rule="evenodd" d="M8.00261 3.16927C7.63595 3.16927 7.33595 3.46927 7.33595 3.83594V13.8359C7.33595 14.2026 7.63595 14.5026 8.00261 14.5026C8.36928 14.5026 8.66928 14.2026 8.66928 13.8359V3.83594C8.66928 3.46927 8.36928 3.16927 8.00261 3.16927ZM12.6693 8.50261C12.3026 8.50261 12.0026 8.80261 12.0026 9.16927V13.8359C12.0026 14.2026 12.3026 14.5026 12.6693 14.5026C13.0359 14.5026 13.3359 14.2026 13.3359 13.8359V9.16927C13.3359 8.80261 13.0359 8.50261 12.6693 8.50261ZM2.66928 6.50261C2.66928 6.13594 2.96928 5.83594 3.33595 5.83594C3.70261 5.83594 4.00261 6.13594 4.00261 6.50261V13.8359C4.00261 14.2026 3.70261 14.5026 3.33595 14.5026C2.96928 14.5026 2.66928 14.2026 2.66928 13.8359V6.50261Z" fill="black"/>
<mask id="mask0_2086_254" style="mask-type:luminance" maskUnits="userSpaceOnUse" x="2" y="3" width="12" height="12">
<path fill-rule="evenodd" clip-rule="evenodd" d="M8.00261 3.16927C7.63595 3.16927 7.33595 3.46927 7.33595 3.83594V13.8359C7.33595 14.2026 7.63595 14.5026 8.00261 14.5026C8.36928 14.5026 8.66928 14.2026 8.66928 13.8359V3.83594C8.66928 3.46927 8.36928 3.16927 8.00261 3.16927ZM12.6693 8.50261C12.3026 8.50261 12.0026 8.80261 12.0026 9.16927V13.8359C12.0026 14.2026 12.3026 14.5026 12.6693 14.5026C13.0359 14.5026 13.3359 14.2026 13.3359 13.8359V9.16927C13.3359 8.80261 13.0359 8.50261 12.6693 8.50261ZM2.66928 6.50261C2.66928 6.13594 2.96928 5.83594 3.33595 5.83594C3.70261 5.83594 4.00261 6.13594 4.00261 6.50261V13.8359C4.00261 14.2026 3.70261 14.5026 3.33595 14.5026C2.96928 14.5026 2.66928 14.2026 2.66928 13.8359V6.50261Z" fill="white"/>
</mask>
<g mask="url(#mask0_2086_254)">
<rect y="0.5" width="16" height="16" fill="black"/>
</g>
</svg>
