<svg width="20" height="20" viewBox="0 0 20 20" fill="none" xmlns="http://www.w3.org/2000/svg">
<path fill-rule="evenodd" clip-rule="evenodd" d="M12.2616 6.66666C11.9333 6.66666 11.6666 6.34916 11.6666 5.95832V3.31499L14.7849 6.66666H12.2616ZM11.6666 12.5H10.8333V13.3333C10.8333 13.7933 10.4608 14.1667 9.99992 14.1667C9.53909 14.1667 9.16659 13.7933 9.16659 13.3333V12.5H8.33325C7.87242 12.5 7.49992 12.1267 7.49992 11.6667C7.49992 11.2067 7.87242 10.8333 8.33325 10.8333H9.16659V9.99999C9.16659 9.53999 9.53909 9.16666 9.99992 9.16666C10.4608 9.16666 10.8333 9.53999 10.8333 9.99999V10.8333H11.6666C12.1274 10.8333 12.4999 11.2067 12.4999 11.6667C12.4999 12.1267 12.1274 12.5 11.6666 12.5ZM16.4499 6.10666L12.7466 1.93999C12.5891 1.76582 12.3649 1.66666 12.1299 1.66666H5.46325C4.28909 1.66666 3.33325 2.60166 3.33325 3.74999V16.25C3.33325 17.3983 4.28909 18.3333 5.46325 18.3333H14.5366C15.7116 18.3333 16.6666 17.3983 16.6666 16.25V6.66666C16.6666 6.45916 16.5891 6.25999 16.4499 6.10666Z" fill="#242632"/>
<mask id="mask0_2379_1628" style="mask-type:luminance" maskUnits="userSpaceOnUse" x="3" y="1" width="14" height="18">
<path fill-rule="evenodd" clip-rule="evenodd" d="M12.2616 6.66666C11.9333 6.66666 11.6666 6.34916 11.6666 5.95832V3.31499L14.7849 6.66666H12.2616ZM11.6666 12.5H10.8333V13.3333C10.8333 13.7933 10.4608 14.1667 9.99992 14.1667C9.53909 14.1667 9.16659 13.7933 9.16659 13.3333V12.5H8.33325C7.87242 12.5 7.49992 12.1267 7.49992 11.6667C7.49992 11.2067 7.87242 10.8333 8.33325 10.8333H9.16659V9.99999C9.16659 9.53999 9.53909 9.16666 9.99992 9.16666C10.4608 9.16666 10.8333 9.53999 10.8333 9.99999V10.8333H11.6666C12.1274 10.8333 12.4999 11.2067 12.4999 11.6667C12.4999 12.1267 12.1274 12.5 11.6666 12.5ZM16.4499 6.10666L12.7466 1.93999C12.5891 1.76582 12.3649 1.66666 12.1299 1.66666H5.46325C4.28909 1.66666 3.33325 2.60166 3.33325 3.74999V16.25C3.33325 17.3983 4.28909 18.3333 5.46325 18.3333H14.5366C15.7116 18.3333 16.6666 17.3983 16.6666 16.25V6.66666C16.6666 6.45916 16.5891 6.25999 16.4499 6.10666Z" fill="white"/>
</mask>
<g mask="url(#mask0_2379_1628)">
<rect width="20" height="20" fill="#242632"/>
</g>
</svg>
