<svg width="18" height="18" viewBox="0 0 18 18" fill="none" xmlns="http://www.w3.org/2000/svg">
<g clip-path="url(#clip0_2379_1618)">
<path d="M4.824 14.2184V16.9184C4.824 17.3144 4.5 17.6384 4.104 17.6384H0.72C0.324 17.6384 0 17.3144 0 16.9184V14.2184C0 13.8224 0.324 13.4984 0.72 13.4984H4.104C4.5 13.4984 4.824 13.8584 4.824 14.2184ZM3.672 6.6224V1.0784C3.672 0.682398 3.996 0.358398 4.392 0.358398H12.924C13.32 0.358398 13.644 0.682398 13.644 1.0784V6.6224C13.644 7.0184 13.32 7.3424 12.924 7.3424H4.392C3.996 7.3424 3.672 7.0184 3.672 6.6224ZM17.28 14.2184V16.9184C17.28 17.3144 16.956 17.6384 16.56 17.6384H13.176C12.78 17.6384 12.456 17.3144 12.456 16.9184V14.2184C12.456 13.8224 12.78 13.4984 13.176 13.4984H16.56C16.956 13.4984 17.28 13.8584 17.28 14.2184ZM11.052 14.2184V16.9184C11.052 17.3144 10.728 17.6384 10.332 17.6384H6.948C6.552 17.6384 6.228 17.3144 6.228 16.9184V14.2184C6.228 13.8224 6.552 13.4984 6.948 13.4984H10.332C10.728 13.4984 11.052 13.8584 11.052 14.2184Z" fill="white"/>
<path d="M15.5913 10.1165V12.8165H14.8713V10.4765H9.00331V12.8165H8.28331V10.4765H2.41531V12.8165H1.69531V10.1165C1.69531 9.90045 1.83931 9.75645 2.05531 9.75645H8.28331V8.06445H9.00331V9.75645H15.2313C15.4473 9.75645 15.5913 9.90045 15.5913 10.1165Z" fill="white"/>
</g>
<defs>
<clipPath id="clip0_2379_1618">
<rect width="18" height="18" fill="white"/>
</clipPath>
</defs>
</svg>
