<svg width="20" height="20" viewBox="0 0 20 20" fill="none" xmlns="http://www.w3.org/2000/svg">
<path fill-rule="evenodd" clip-rule="evenodd" d="M11.5861 18.3333C11.4077 18.3333 11.2311 18.2767 11.0836 18.1642L7.72857 15.6267C7.52024 15.4692 7.39774 15.2233 7.39774 14.9625V12.2342L3.42607 4.54918C3.29274 4.29084 3.30357 3.98168 3.45524 3.73334C3.60607 3.48501 3.87607 3.33334 4.1669 3.33334H15.8336C16.1269 3.33334 16.3986 3.48751 16.5494 3.74001C16.6994 3.99168 16.7061 4.30501 16.5669 4.56251L12.4194 12.2417V17.5C12.4194 17.8158 12.2402 18.105 11.9569 18.2467C11.8394 18.3042 11.7127 18.3333 11.5861 18.3333Z" fill="white"/>
<mask id="mask0_2379_1571" style="mask-type:luminance" maskUnits="userSpaceOnUse" x="3" y="3" width="14" height="16">
<path fill-rule="evenodd" clip-rule="evenodd" d="M11.5861 18.3333C11.4077 18.3333 11.2311 18.2767 11.0836 18.1642L7.72857 15.6267C7.52024 15.4692 7.39774 15.2233 7.39774 14.9625V12.2342L3.42607 4.54918C3.29274 4.29084 3.30357 3.98168 3.45524 3.73334C3.60607 3.48501 3.87607 3.33334 4.1669 3.33334H15.8336C16.1269 3.33334 16.3986 3.48751 16.5494 3.74001C16.6994 3.99168 16.7061 4.30501 16.5669 4.56251L12.4194 12.2417V17.5C12.4194 17.8158 12.2402 18.105 11.9569 18.2467C11.8394 18.3042 11.7127 18.3333 11.5861 18.3333Z" fill="white"/>
</mask>
<g mask="url(#mask0_2379_1571)">
<rect width="20" height="20" fill="white"/>
</g>
</svg>
