<svg width="20" height="20" viewBox="0 0 20 20" fill="none" xmlns="http://www.w3.org/2000/svg">
<path fill-rule="evenodd" clip-rule="evenodd" d="M9.99992 11.6667C9.53992 11.6667 9.16659 12.04 9.16659 12.5C9.16659 12.96 9.53992 13.3333 9.99992 13.3333C10.4599 13.3333 10.8333 12.96 10.8333 12.5C10.8333 12.04 10.4599 11.6667 9.99992 11.6667ZM9.99992 15C8.62158 15 7.49992 13.8783 7.49992 12.5C7.49992 11.1217 8.62158 10 9.99992 10C11.3783 10 12.4999 11.1217 12.4999 12.5C12.4999 13.8783 11.3783 15 9.99992 15ZM8.33325 5.0925C8.33325 4.1225 9.08075 3.33334 9.99992 3.33334C10.9191 3.33334 11.6666 4.1225 11.6666 5.0925V6.66667H8.33325V5.0925ZM14.1666 6.66667H13.3333V5.0925C13.3333 3.20417 11.8383 1.66667 9.99992 1.66667C8.16159 1.66667 6.66659 3.20417 6.66659 5.0925V6.66667H5.83325C4.45492 6.66667 3.33325 7.78834 3.33325 9.16667V15.8333C3.33325 17.2117 4.45492 18.3333 5.83325 18.3333H14.1666C15.5449 18.3333 16.6666 17.2117 16.6666 15.8333V9.16667C16.6666 7.78834 15.5449 6.66667 14.1666 6.66667Z" fill="#FFEA8E"/>
<mask id="mask0_2379_1603" style="mask-type:luminance" maskUnits="userSpaceOnUse" x="3" y="1" width="14" height="18">
<path fill-rule="evenodd" clip-rule="evenodd" d="M9.99992 11.6667C9.53992 11.6667 9.16659 12.04 9.16659 12.5C9.16659 12.96 9.53992 13.3333 9.99992 13.3333C10.4599 13.3333 10.8333 12.96 10.8333 12.5C10.8333 12.04 10.4599 11.6667 9.99992 11.6667ZM9.99992 15C8.62158 15 7.49992 13.8783 7.49992 12.5C7.49992 11.1217 8.62158 10 9.99992 10C11.3783 10 12.4999 11.1217 12.4999 12.5C12.4999 13.8783 11.3783 15 9.99992 15ZM8.33325 5.0925C8.33325 4.1225 9.08075 3.33334 9.99992 3.33334C10.9191 3.33334 11.6666 4.1225 11.6666 5.0925V6.66667H8.33325V5.0925ZM14.1666 6.66667H13.3333V5.0925C13.3333 3.20417 11.8383 1.66667 9.99992 1.66667C8.16159 1.66667 6.66659 3.20417 6.66659 5.0925V6.66667H5.83325C4.45492 6.66667 3.33325 7.78834 3.33325 9.16667V15.8333C3.33325 17.2117 4.45492 18.3333 5.83325 18.3333H14.1666C15.5449 18.3333 16.6666 17.2117 16.6666 15.8333V9.16667C16.6666 7.78834 15.5449 6.66667 14.1666 6.66667Z" fill="white"/>
</mask>
<g mask="url(#mask0_2379_1603)">
<rect width="20" height="20" fill="#FFEA8E"/>
</g>
</svg>
