<svg width="20" height="21" viewBox="0 0 20 21" fill="none" xmlns="http://www.w3.org/2000/svg">
<path fill-rule="evenodd" clip-rule="evenodd" d="M15.001 2.93799H5.00098C3.62264 2.93799 2.50098 4.04627 2.50098 5.40816V15.2888C2.50098 16.6507 3.62264 17.759 5.00098 17.759H10.8343V9.5251H14.1676V17.759H15.001C16.3793 17.759 17.501 16.6507 17.501 15.2888V5.40816C17.501 4.04627 16.3793 2.93799 15.001 2.93799Z" fill="#000000"/>
<mask id="mask0_2379_5570" style="mask-type:luminance" maskUnits="userSpaceOnUse" x="2" y="2" width="16" height="16">
<path fill-rule="evenodd" clip-rule="evenodd" d="M15.001 2.93799H5.00098C3.62264 2.93799 2.50098 4.04627 2.50098 5.40816V15.2888C2.50098 16.6507 3.62264 17.759 5.00098 17.759H10.8343V9.5251H14.1676V17.759H15.001C16.3793 17.759 17.501 16.6507 17.501 15.2888V5.40816C17.501 4.04627 16.3793 2.93799 15.001 2.93799Z" fill="white"/>
</mask>
<g mask="url(#mask0_2379_5570)">
<rect x="0.000976562" y="0.467773" width="20" height="19.7613" fill="#000000"/>
</g>
</svg>
