<svg width="22" height="22" viewBox="0 0 22 22" fill="none" xmlns="http://www.w3.org/2000/svg">
<path d="M14.5949 10.2981L13.1291 11.8226C13.0117 12.9953 12.0149 13.9334 10.8423 13.9334C9.55241 13.9334 8.5556 12.8781 8.5556 11.6467C8.5556 10.4154 9.49374 9.41867 10.6664 9.36L12.1323 7.89417C11.7218 7.71827 11.2527 7.65964 10.8423 7.65964C8.61423 7.65964 6.85522 9.47724 6.85522 11.6467C6.85522 13.8748 8.67286 15.6924 10.8423 15.6924C13.0704 15.6924 14.888 13.8748 14.888 11.6467C14.8294 11.1777 14.7708 10.7086 14.5949 10.2981Z" fill="#242632"/>
<path d="M17.643 7.30802L15.5321 9.41884C15.8253 10.0638 16.0598 10.826 16.0598 11.6469C16.0598 14.52 13.7145 16.8653 10.8414 16.8653C7.9684 16.8653 5.68168 14.52 5.68168 11.6469C5.68168 8.77386 8.02703 6.48715 10.8414 6.48715C11.6623 6.48715 12.3659 6.66306 13.0696 6.95622L15.1804 4.84541C13.949 4.02454 12.4246 3.6141 10.8414 3.6141C6.38529 3.55546 2.75 7.19075 2.75 11.5883C2.75 16.0444 6.38529 19.6797 10.8414 19.6797C15.2976 19.6797 18.9329 16.0444 18.9329 11.5883C18.8743 10.0051 18.4052 8.53933 17.643 7.30802Z" fill="#242632"/>
<path d="M21.3388 3.73107L18.9348 6.13505C18.8176 6.25232 18.6417 6.31096 18.5245 6.31096C18.4658 6.31096 18.4071 6.31096 18.3485 6.31096L17.2931 6.01779L11.2538 12.0571C11.1366 12.1743 10.9607 12.2329 10.8434 12.2329C10.6675 12.2329 10.5503 12.1743 10.4329 12.0571C10.1985 11.8225 10.1985 11.4707 10.4329 11.2362L16.4722 5.13828L16.1791 4.08288C16.1205 3.90697 16.1791 3.67244 16.355 3.49654L18.7589 1.09256C18.9348 0.916656 19.1108 0.916656 19.3453 0.916656C19.5212 0.975286 19.6971 1.15119 19.7557 1.32709L20.0489 2.44113L21.1043 2.7343C21.3388 2.79294 21.4561 2.96883 21.5147 3.14473C21.5734 3.37927 21.5147 3.55517 21.3388 3.73107Z" fill="#242632"/>
</svg>
