<svg width="20" height="21" viewBox="0 0 20 21" fill="none" xmlns="http://www.w3.org/2000/svg">
<path fill-rule="evenodd" clip-rule="evenodd" d="M16.667 3.91724H3.33366C2.72616 3.91724 2.14283 4.15602 1.71283 4.58006C1.28349 5.00512 1.04225 5.58103 1.04199 6.18156V14.4154C1.04199 15.0157 1.28366 15.5921 1.71283 16.0169C2.14301 16.4412 2.72588 16.6795 3.33366 16.6798H16.667C17.2745 16.6798 17.8578 16.441 18.2878 16.0169C18.7172 15.5919 18.9584 15.016 18.9587 14.4154V6.18156C18.9587 5.58131 18.717 5.00493 18.2878 4.58006C17.8576 4.15585 17.2748 3.91749 16.667 3.91724ZM7.44949 10.5233C7.82332 10.3331 8.12161 10.0243 8.29642 9.64643C8.47124 9.26858 8.51245 8.84363 8.41342 8.43986C8.31439 8.03609 8.08088 7.67692 7.75039 7.42006C7.41991 7.1632 7.01164 7.02355 6.59116 7.02355C6.17068 7.02355 5.76241 7.1632 5.43192 7.42006C5.10144 7.67692 4.86793 8.03609 4.7689 8.43986C4.66987 8.84363 4.71108 9.26858 4.88589 9.64643C5.06071 10.0243 5.35899 10.3331 5.73283 10.5233C5.64435 10.5266 5.55765 10.5488 5.47866 10.5883L4.76449 10.9407C4.52234 11.0604 4.31871 11.2444 4.17638 11.472C4.03406 11.6996 3.95867 11.9618 3.95866 12.2294V12.9556C3.95866 13.2973 4.23866 13.5731 4.58366 13.5731H8.75033C8.91609 13.5731 9.07506 13.5081 9.19227 13.3922C9.30948 13.2764 9.37533 13.1194 9.37533 12.9556V12.2565C9.37533 11.9775 9.29337 11.7045 9.13937 11.4707C8.98538 11.2368 8.76599 11.0521 8.50783 10.9391L7.67783 10.576C7.60572 10.5445 7.52827 10.5266 7.44949 10.5233ZM11.2503 12.357H15.417C15.5828 12.357 15.7417 12.2919 15.8589 12.1761C15.9761 12.0603 16.042 11.9032 16.042 11.7394C16.042 11.5757 15.9761 11.4186 15.8589 11.3028C15.7417 11.187 15.5828 11.1219 15.417 11.1219H11.2503C11.0846 11.1219 10.9256 11.187 10.8084 11.3028C10.6912 11.4186 10.6253 11.5757 10.6253 11.7394C10.6253 11.9032 10.6912 12.0603 10.8084 12.1761C10.9256 12.2919 11.0846 12.357 11.2503 12.357ZM11.2503 9.47511H13.3337C13.4994 9.47511 13.6584 9.41005 13.7756 9.29424C13.8928 9.17843 13.9587 9.02135 13.9587 8.85757C13.9587 8.69379 13.8928 8.53672 13.7756 8.4209C13.6584 8.30509 13.4994 8.24003 13.3337 8.24003H11.2503C11.0846 8.24003 10.9256 8.30509 10.8084 8.4209C10.6912 8.53672 10.6253 8.69379 10.6253 8.85757C10.6253 9.02135 10.6912 9.17843 10.8084 9.29424C10.9256 9.41005 11.0846 9.47511 11.2503 9.47511Z" fill="#C0C0C0"/>
</svg>
