<svg width="20" height="20" viewBox="0 0 20 20" fill="none" xmlns="http://www.w3.org/2000/svg">
<path d="M3.68128 1.25C3.55352 1.24973 3.42696 1.27468 3.30888 1.32345C3.19079 1.37221 3.08349 1.44382 2.99315 1.53416C2.90281 1.6245 2.8312 1.73181 2.78243 1.8499C2.73367 1.96799 2.70871 2.09454 2.70899 2.2223V17.7777C2.70899 18.2639 3.19502 18.75 3.68128 18.75H8.54231V15.8333C8.54231 15.2948 9.05634 14.861 9.51461 14.861H10.4867C10.9449 14.861 11.459 15.2948 11.459 15.8333V18.75H16.32C16.8063 18.75 17.2923 18.2639 17.2923 17.7777V2.22254C17.2926 2.09478 17.2676 1.96822 17.2188 1.85013C17.1701 1.73204 17.0985 1.62473 17.0081 1.53439C16.9178 1.44405 16.8105 1.37245 16.6924 1.32369C16.5743 1.27492 16.4478 1.24995 16.32 1.25023L3.68128 1.25ZM5.62565 4.16666H8.54231V6.11103H5.62565V4.16666ZM11.459 4.16666H14.3756V6.11103H11.459V4.16666ZM5.62565 9.99999H8.54231V11.9444H5.62565V9.99999ZM11.459 9.99999H14.3756V11.9444H11.459V9.99999Z" fill="white" fill-opacity="0.7"/>
</svg>
