<svg width="20" height="21" viewBox="0 0 20 21" fill="none" xmlns="http://www.w3.org/2000/svg">
<path fill-rule="evenodd" clip-rule="evenodd" d="M2.5004 4.91C2.5004 3.88735 3.3404 3.05737 4.3754 3.05737C5.4104 3.05737 6.2504 3.88735 6.2504 4.91C6.2504 5.93265 5.4104 6.76262 4.3754 6.76262C3.3404 6.76262 2.5004 5.93265 2.5004 4.91ZM12.6257 7.504C9.93317 7.504 7.74983 9.64811 7.74983 12.2912V17.1368C7.74983 17.5461 8.0865 17.8787 8.50067 17.8787H10.2498C10.664 17.8787 11.0007 17.5461 11.0007 17.1368V12.2912C11.0007 11.3558 11.8207 10.6082 12.794 10.7045C13.639 10.7877 14.2498 11.551 14.2498 12.39V17.1368C14.2498 17.5461 14.5865 17.8787 15.0007 17.8787H16.7498C17.164 17.8787 17.5007 17.5461 17.5007 17.1368V12.2912C17.5007 9.64811 15.3173 7.504 12.6257 7.504ZM5.5 8.24456H3.25083C2.83667 8.24456 2.5 8.57639 2.5 8.98561V17.1372C2.5 17.5464 2.83667 17.8782 3.25083 17.8782H5.5C5.91417 17.8782 6.25 17.5464 6.25 17.1372V8.98561C6.25 8.57639 5.91417 8.24456 5.5 8.24456Z" fill="#C0C0C0"/>
<mask id="mask0_2379_5632" style="mask-type:luminance" maskUnits="userSpaceOnUse" x="2" y="3" width="16" height="15">
<path fill-rule="evenodd" clip-rule="evenodd" d="M2.5004 4.91C2.5004 3.88735 3.3404 3.05737 4.3754 3.05737C5.4104 3.05737 6.2504 3.88735 6.2504 4.91C6.2504 5.93265 5.4104 6.76262 4.3754 6.76262C3.3404 6.76262 2.5004 5.93265 2.5004 4.91ZM12.6257 7.504C9.93317 7.504 7.74983 9.64811 7.74983 12.2912V17.1368C7.74983 17.5461 8.0865 17.8787 8.50067 17.8787H10.2498C10.664 17.8787 11.0007 17.5461 11.0007 17.1368V12.2912C11.0007 11.3558 11.8207 10.6082 12.794 10.7045C13.639 10.7877 14.2498 11.551 14.2498 12.39V17.1368C14.2498 17.5461 14.5865 17.8787 15.0007 17.8787H16.7498C17.164 17.8787 17.5007 17.5461 17.5007 17.1368V12.2912C17.5007 9.64811 15.3173 7.504 12.6257 7.504ZM5.5 8.24456H3.25083C2.83667 8.24456 2.5 8.57639 2.5 8.98561V17.1372C2.5 17.5464 2.83667 17.8782 3.25083 17.8782H5.5C5.91417 17.8782 6.25 17.5464 6.25 17.1372V8.98561C6.25 8.57639 5.91417 8.24456 5.5 8.24456Z" fill="white"/>
</mask>
<g mask="url(#mask0_2379_5632)">
<rect y="0.587158" width="20" height="19.7613" fill="#C0C0C0"/>
</g>
</svg>
