<svg width="20" height="20" viewBox="0 0 20 20" fill="none" xmlns="http://www.w3.org/2000/svg">
<path fill-rule="evenodd" clip-rule="evenodd" d="M9.99967 6.73745C9.31051 6.73745 8.74967 7.29159 8.74967 7.97254C8.74967 8.65348 9.31051 9.20762 9.99967 9.20762C10.6888 9.20762 11.2497 8.65348 11.2497 7.97254C11.2497 7.29159 10.6888 6.73745 9.99967 6.73745ZM9.99967 10.8544C8.39134 10.8544 7.08301 9.56168 7.08301 7.97254C7.08301 6.3834 8.39134 5.09068 9.99967 5.09068C11.608 5.09068 12.9163 6.3834 12.9163 7.97254C12.9163 9.56168 11.608 10.8544 9.99967 10.8544ZM9.99967 1.79712C6.32384 1.79712 3.33301 4.72344 3.33301 8.32083C3.33301 12.8281 9.20717 17.8549 9.45717 18.0665C9.61384 18.199 9.80634 18.2649 9.99967 18.2649C10.193 18.2649 10.3855 18.199 10.5422 18.0665C10.7922 17.8549 16.6663 12.8281 16.6663 8.32083C16.6663 4.72344 13.6755 1.79712 9.99967 1.79712Z" fill="#C0C0C0"/>
<mask id="mask0_2379_5538" style="mask-type:luminance" maskUnits="userSpaceOnUse" x="3" y="1" width="14" height="18">
<path fill-rule="evenodd" clip-rule="evenodd" d="M9.99967 6.73745C9.31051 6.73745 8.74967 7.29159 8.74967 7.97254C8.74967 8.65348 9.31051 9.20762 9.99967 9.20762C10.6888 9.20762 11.2497 8.65348 11.2497 7.97254C11.2497 7.29159 10.6888 6.73745 9.99967 6.73745ZM9.99967 10.8544C8.39134 10.8544 7.08301 9.56168 7.08301 7.97254C7.08301 6.3834 8.39134 5.09068 9.99967 5.09068C11.608 5.09068 12.9163 6.3834 12.9163 7.97254C12.9163 9.56168 11.608 10.8544 9.99967 10.8544ZM9.99967 1.79712C6.32384 1.79712 3.33301 4.72344 3.33301 8.32083C3.33301 12.8281 9.20717 17.8549 9.45717 18.0665C9.61384 18.199 9.80634 18.2649 9.99967 18.2649C10.193 18.2649 10.3855 18.199 10.5422 18.0665C10.7922 17.8549 16.6663 12.8281 16.6663 8.32083C16.6663 4.72344 13.6755 1.79712 9.99967 1.79712Z" fill="white"/>
</mask>
<g mask="url(#mask0_2379_5538)">
<rect y="0.150391" width="20" height="19.7613" fill="#C0C0C0"/>
</g>
</svg>
