<svg width="20" height="21" viewBox="0 0 20 21" fill="none" xmlns="http://www.w3.org/2000/svg">
<path fill-rule="evenodd" clip-rule="evenodd" d="M15.8385 5.22417L10.4177 8.90307C10.1619 9.04717 9.84854 9.04717 9.59271 8.90307L4.17187 5.22417H15.8385ZM15.8385 3.57739H4.17188C2.79354 3.57739 1.67188 4.68567 1.67188 6.04756V14.2815C1.67188 15.6433 2.79354 16.7516 4.17188 16.7516H15.8385C17.2169 16.7516 18.3385 15.6433 18.3385 14.2815V6.04756C18.3385 4.68567 17.2169 3.57739 15.8385 3.57739Z" fill="#C0C0C0"/>
<mask id="mask0_2379_5536" style="mask-type:luminance" maskUnits="userSpaceOnUse" x="1" y="3" width="18" height="14">
<path fill-rule="evenodd" clip-rule="evenodd" d="M15.8385 5.22417L10.4177 8.90307C10.1619 9.04717 9.84854 9.04717 9.59271 8.90307L4.17187 5.22417H15.8385ZM15.8385 3.57739H4.17188C2.79354 3.57739 1.67188 4.68567 1.67188 6.04756V14.2815C1.67188 15.6433 2.79354 16.7516 4.17188 16.7516H15.8385C17.2169 16.7516 18.3385 15.6433 18.3385 14.2815V6.04756C18.3385 4.68567 17.2169 3.57739 15.8385 3.57739Z" fill="white"/>
</mask>
<g mask="url(#mask0_2379_5536)">
<rect y="0.283936" width="20" height="19.7613" fill="#C0C0C0"/>
</g>
</svg>
