<svg width="17" height="16" viewBox="0 0 17 16" fill="none" xmlns="http://www.w3.org/2000/svg">
<path d="M8.4987 11.5807C6.54003 11.5807 4.99803 9.48406 4.8447 7.55873C4.1487 7.45606 3.83203 7.01673 3.83203 6.58073V5.24739C3.83203 4.83073 4.2347 4.53006 4.4987 4.37739V3.24739C4.4987 2.05073 4.8927 0.942726 7.72203 0.914726C8.67603 0.23206 9.59403 0.0860596 10.2047 0.0860596C11.3854 0.0860596 12.3987 0.621393 12.788 1.44939C13.0767 2.06673 12.9734 2.74206 12.4987 3.36406V4.37806C12.762 4.53073 13.1654 4.83139 13.1654 5.24806V6.58139C13.1654 7.01673 12.8487 7.45673 12.152 7.55939C11.9994 9.48473 10.4574 11.5807 8.4987 11.5807Z" fill="#0094FF"/>
<path d="M12.2203 11.914H11.3963L10.961 11.2814C10.273 11.8714 9.43233 12.2474 8.49966 12.2474C7.57833 12.2474 6.74833 11.88 6.06499 11.3027L5.65566 11.914H4.83366C2.70833 11.914 1.16699 13.3167 1.16699 15.2474V15.914H15.8337V15.2474C15.8323 13.2854 14.347 11.914 12.2203 11.914Z" fill="#0094FF"/>
</svg>
