<svg width="17" height="16" viewBox="0 0 17 16" fill="none" xmlns="http://www.w3.org/2000/svg">
<path d="M13.662 12.03L11.108 11.3913L10.9607 10.8013C12.7227 10.5047 13.6293 9.97667 13.6693 9.95333C13.7162 9.92562 13.7555 9.88685 13.7839 9.84043C13.8123 9.794 13.8289 9.74133 13.8323 9.68701C13.8356 9.63269 13.8256 9.57838 13.8032 9.52881C13.7807 9.47924 13.7464 9.43594 13.7033 9.40267C13.6913 9.39333 12.5 8.40933 12.5 5C12.5 2.12467 11.8273 0.666667 10.5 0.666667H10.3033C9.82467 0.204 9.46534 0 8.5 0C7.24734 0 4.5 1.25933 4.5 5C4.5 8.40933 3.30867 9.39333 3.3 9.4C3.25665 9.43295 3.22199 9.47599 3.19903 9.52538C3.17608 9.57476 3.16552 9.629 3.16828 9.68339C3.17104 9.73778 3.18703 9.79068 3.21487 9.83748C3.2427 9.88429 3.28154 9.9236 3.328 9.952C3.368 9.976 4.266 10.5067 6.03867 10.8027L5.89134 11.3913L3.33734 12.03C2.52613 12.2321 1.80597 12.7001 1.29171 13.3592C0.77746 14.0183 0.498738 14.8307 0.500004 15.6667C0.500004 15.7551 0.535123 15.8399 0.597635 15.9024C0.660148 15.9649 0.744932 16 0.833338 16H16.1667C16.3507 16 16.5 15.8493 16.5 15.6653C16.5011 14.8294 16.2221 14.0173 15.7078 13.3584C15.1934 12.6995 14.4732 12.2318 13.662 12.03Z" fill="#FF66B2"/>
</svg>
