<svg width="20" height="21" viewBox="0 0 20 21" fill="none" xmlns="http://www.w3.org/2000/svg">
<path fill-rule="evenodd" clip-rule="evenodd" d="M10.8346 4.04302C14.0505 4.04302 16.668 6.62928 16.668 9.80674C16.668 10.2621 17.0405 10.6301 17.5013 10.6301C17.9621 10.6301 18.3346 10.2621 18.3346 9.80674C18.3346 5.72026 14.9705 2.39624 10.8346 2.39624C10.3746 2.39624 10.0013 2.7643 10.0013 3.21963C10.0013 3.67496 10.3746 4.04302 10.8346 4.04302ZM10.8346 7.33657C12.213 7.33657 13.3346 8.44486 13.3346 9.80674C13.3346 10.2621 13.7071 10.6301 14.168 10.6301C14.6288 10.6301 15.0013 10.2621 15.0013 9.80674C15.0013 7.53666 13.1321 5.6898 10.8346 5.6898C10.3746 5.6898 10.0013 6.05785 10.0013 6.51319C10.0013 6.96852 10.3746 7.33657 10.8346 7.33657ZM17.5263 13.3162C17.8063 13.3796 18.0338 13.5805 18.1271 13.8481C18.1955 14.0416 18.248 14.2434 18.2813 14.4492C18.3163 14.6542 18.3346 14.8634 18.3346 15.0766C18.3346 17.1647 16.6155 18.8642 14.5013 18.8642C7.42547 18.8642 1.66797 13.1762 1.66797 6.18321C1.66797 4.09509 3.38797 2.39644 5.5013 2.39644C5.71797 2.39644 5.93214 2.41455 6.13964 2.44996C6.34214 2.48207 6.5463 2.53312 6.7438 2.60064C7.01547 2.69368 7.2188 2.91847 7.28297 3.19513L8.4238 8.105C8.48714 8.37589 8.40797 8.65914 8.2138 8.85922C8.09964 8.97696 8.09714 8.97943 7.0638 9.51299C7.90047 11.3039 9.35463 12.7349 11.1305 13.5344C11.6721 12.5126 11.6746 12.5093 11.793 12.3965C11.9963 12.2046 12.2821 12.1281 12.5563 12.1882L17.5263 13.3162Z" fill="#C0C0C0"/>
<mask id="mask0_2379_5580" style="mask-type:luminance" maskUnits="userSpaceOnUse" x="1" y="2" width="18" height="17">
<path fill-rule="evenodd" clip-rule="evenodd" d="M10.8346 4.04302C14.0505 4.04302 16.668 6.62928 16.668 9.80674C16.668 10.2621 17.0405 10.6301 17.5013 10.6301C17.9621 10.6301 18.3346 10.2621 18.3346 9.80674C18.3346 5.72026 14.9705 2.39624 10.8346 2.39624C10.3746 2.39624 10.0013 2.7643 10.0013 3.21963C10.0013 3.67496 10.3746 4.04302 10.8346 4.04302ZM10.8346 7.33657C12.213 7.33657 13.3346 8.44486 13.3346 9.80674C13.3346 10.2621 13.7071 10.6301 14.168 10.6301C14.6288 10.6301 15.0013 10.2621 15.0013 9.80674C15.0013 7.53666 13.1321 5.6898 10.8346 5.6898C10.3746 5.6898 10.0013 6.05785 10.0013 6.51319C10.0013 6.96852 10.3746 7.33657 10.8346 7.33657ZM17.5263 13.3162C17.8063 13.3796 18.0338 13.5805 18.1271 13.8481C18.1955 14.0416 18.248 14.2434 18.2813 14.4492C18.3163 14.6542 18.3346 14.8634 18.3346 15.0766C18.3346 17.1647 16.6155 18.8642 14.5013 18.8642C7.42547 18.8642 1.66797 13.1762 1.66797 6.18321C1.66797 4.09509 3.38797 2.39644 5.5013 2.39644C5.71797 2.39644 5.93214 2.41455 6.13964 2.44996C6.34214 2.48207 6.5463 2.53312 6.7438 2.60064C7.01547 2.69368 7.2188 2.91847 7.28297 3.19513L8.4238 8.105C8.48714 8.37589 8.40797 8.65914 8.2138 8.85922C8.09964 8.97696 8.09714 8.97943 7.0638 9.51299C7.90047 11.3039 9.35463 12.7349 11.1305 13.5344C11.6721 12.5126 11.6746 12.5093 11.793 12.3965C11.9963 12.2046 12.2821 12.1281 12.5563 12.1882L17.5263 13.3162Z" fill="white"/>
</mask>
<g mask="url(#mask0_2379_5580)">
<rect x="0.000976562" y="0.749512" width="20" height="19.7613" fill="#C0C0C0"/>
</g>
</svg>
