<svg width="26" height="27" viewBox="0 0 26 27" fill="none" xmlns="http://www.w3.org/2000/svg">
<rect x="0.000976562" y="0.928467" width="26" height="26" rx="13" fill="#0DC143"/>
<g clip-path="url(#clip0_2379_5595)">
<mask id="mask0_2379_5595" style="mask-type:luminance" maskUnits="userSpaceOnUse" x="6" y="6" width="15" height="15">
<path d="M20.001 6.92847H6.00098V20.9285H20.001V6.92847Z" fill="white"/>
</mask>
<g mask="url(#mask0_2379_5595)">
<path d="M13.0027 6.92847H12.9992C9.13961 6.92847 6.00099 10.068 6.00099 13.9285C5.99859 15.4029 6.4653 16.8398 7.33361 18.0313L6.46124 20.6318L9.15186 19.7717C10.2932 20.5289 11.6331 20.9314 13.0027 20.9285C16.8624 20.9285 20.001 17.7881 20.001 13.9285C20.001 10.0688 16.8624 6.92847 13.0027 6.92847ZM17.0759 16.8133C16.907 17.2902 16.2367 17.6857 15.7021 17.8012C15.3364 17.8791 14.8586 17.9412 13.2504 17.2745C11.1932 16.4222 9.86849 14.3318 9.76524 14.1962C9.66636 14.0606 8.93399 13.0893 8.93399 12.0848C8.93399 11.0803 9.44411 10.5912 9.64974 10.3812C9.81861 10.2088 10.0977 10.1301 10.3655 10.1301C10.4521 10.1301 10.53 10.1345 10.6 10.138C10.8056 10.1467 10.9089 10.159 11.0445 10.4836C11.2134 10.8905 11.6246 11.895 11.6736 11.9982C11.7235 12.1015 11.7734 12.2415 11.7034 12.3771C11.6377 12.5171 11.58 12.5792 11.4767 12.6982C11.3735 12.8172 11.2755 12.9082 11.1722 13.036C11.0777 13.1471 10.971 13.2661 11.09 13.4717C11.209 13.673 11.6202 14.3441 12.2257 14.8831C13.0071 15.5787 13.6406 15.801 13.8672 15.8955C14.0361 15.9655 14.2374 15.9488 14.3607 15.8176C14.5174 15.6487 14.7107 15.3687 14.9076 15.0931C15.0476 14.8953 15.2244 14.8708 15.4099 14.9408C15.5989 15.0065 16.599 15.5008 16.8046 15.6032C17.0102 15.7065 17.1459 15.7555 17.1957 15.8421C17.2447 15.9287 17.2447 16.3356 17.0759 16.8133Z" fill="white"/>
</g>
</g>
<defs>
<clipPath id="clip0_2379_5595">
<rect width="14" height="14" fill="white" transform="translate(6.00098 6.92847)"/>
</clipPath>
</defs>
</svg>
